<mxfile host="app.diagrams.net" agent="Mozilla/5.0 (Windows NT 10.0; Win64; x64) AppleWebKit/537.36 (KHTML, like Gecko) Chrome/132.0.0.0 Safari/537.36 OPR/117.0.0.0" version="26.2.13">
  <diagram id="C5RBs43oDa-KdzZeNtuy" name="Page-1">
    <mxGraphModel dx="7359" dy="4381" grid="1" gridSize="10" guides="1" tooltips="1" connect="1" arrows="1" fold="1" page="1" pageScale="1" pageWidth="827" pageHeight="1169" math="0" shadow="0">
      <root>
        <mxCell id="WIyWlLk6GJQsqaUBKTNV-0" />
        <mxCell id="WIyWlLk6GJQsqaUBKTNV-1" parent="WIyWlLk6GJQsqaUBKTNV-0" />
        <mxCell id="K194ZJ6x8vjtOvq9FhH7-183" value="department" style="swimlane;fontStyle=0;childLayout=stackLayout;horizontal=1;startSize=30;horizontalStack=0;resizeParent=1;resizeParentMax=0;resizeLast=0;collapsible=1;marginBottom=0;whiteSpace=wrap;html=1;" vertex="1" parent="WIyWlLk6GJQsqaUBKTNV-1">
          <mxGeometry x="335" y="330" width="230" height="150" as="geometry" />
        </mxCell>
        <mxCell id="K194ZJ6x8vjtOvq9FhH7-184" value="depId: INT &amp;lt;PK&amp;gt;" style="text;strokeColor=none;fillColor=none;align=left;verticalAlign=middle;spacingLeft=4;spacingRight=4;overflow=hidden;points=[[0,0.5],[1,0.5]];portConstraint=eastwest;rotatable=0;whiteSpace=wrap;html=1;" vertex="1" parent="K194ZJ6x8vjtOvq9FhH7-183">
          <mxGeometry y="30" width="230" height="30" as="geometry" />
        </mxCell>
        <mxCell id="K194ZJ6x8vjtOvq9FhH7-185" value="depName: VARCHAR(250)" style="text;strokeColor=none;fillColor=none;align=left;verticalAlign=middle;spacingLeft=4;spacingRight=4;overflow=hidden;points=[[0,0.5],[1,0.5]];portConstraint=eastwest;rotatable=0;whiteSpace=wrap;html=1;" vertex="1" parent="K194ZJ6x8vjtOvq9FhH7-183">
          <mxGeometry y="60" width="230" height="30" as="geometry" />
        </mxCell>
        <mxCell id="K194ZJ6x8vjtOvq9FhH7-186" value="acronym: VARCHAR(20)" style="text;strokeColor=none;fillColor=none;align=left;verticalAlign=middle;spacingLeft=4;spacingRight=4;overflow=hidden;points=[[0,0.5],[1,0.5]];portConstraint=eastwest;rotatable=0;whiteSpace=wrap;html=1;" vertex="1" parent="K194ZJ6x8vjtOvq9FhH7-183">
          <mxGeometry y="90" width="230" height="30" as="geometry" />
        </mxCell>
        <mxCell id="K194ZJ6x8vjtOvq9FhH7-188" value="logo: MEDIUMBLOB" style="text;strokeColor=none;fillColor=none;align=left;verticalAlign=middle;spacingLeft=4;spacingRight=4;overflow=hidden;points=[[0,0.5],[1,0.5]];portConstraint=eastwest;rotatable=0;whiteSpace=wrap;html=1;" vertex="1" parent="K194ZJ6x8vjtOvq9FhH7-183">
          <mxGeometry y="120" width="230" height="30" as="geometry" />
        </mxCell>
        <mxCell id="K194ZJ6x8vjtOvq9FhH7-189" value="organization" style="swimlane;fontStyle=0;childLayout=stackLayout;horizontal=1;startSize=30;horizontalStack=0;resizeParent=1;resizeParentMax=0;resizeLast=0;collapsible=1;marginBottom=0;whiteSpace=wrap;html=1;" vertex="1" parent="WIyWlLk6GJQsqaUBKTNV-1">
          <mxGeometry x="335" y="770" width="230" height="240" as="geometry" />
        </mxCell>
        <mxCell id="K194ZJ6x8vjtOvq9FhH7-190" value="id: INT &amp;lt;PK&amp;gt;" style="text;strokeColor=none;fillColor=none;align=left;verticalAlign=middle;spacingLeft=4;spacingRight=4;overflow=hidden;points=[[0,0.5],[1,0.5]];portConstraint=eastwest;rotatable=0;whiteSpace=wrap;html=1;" vertex="1" parent="K194ZJ6x8vjtOvq9FhH7-189">
          <mxGeometry y="30" width="230" height="30" as="geometry" />
        </mxCell>
        <mxCell id="K194ZJ6x8vjtOvq9FhH7-191" value="orgName: VARCAHR(250)" style="text;strokeColor=none;fillColor=none;align=left;verticalAlign=middle;spacingLeft=4;spacingRight=4;overflow=hidden;points=[[0,0.5],[1,0.5]];portConstraint=eastwest;rotatable=0;whiteSpace=wrap;html=1;" vertex="1" parent="K194ZJ6x8vjtOvq9FhH7-189">
          <mxGeometry y="60" width="230" height="30" as="geometry" />
        </mxCell>
        <mxCell id="K194ZJ6x8vjtOvq9FhH7-192" value="deptId: INT&amp;lt;FK&amp;gt;" style="text;strokeColor=none;fillColor=none;align=left;verticalAlign=middle;spacingLeft=4;spacingRight=4;overflow=hidden;points=[[0,0.5],[1,0.5]];portConstraint=eastwest;rotatable=0;whiteSpace=wrap;html=1;" vertex="1" parent="K194ZJ6x8vjtOvq9FhH7-189">
          <mxGeometry y="90" width="230" height="30" as="geometry" />
        </mxCell>
        <mxCell id="K194ZJ6x8vjtOvq9FhH7-193" value="program_id:VARCHAR(50)" style="text;strokeColor=none;fillColor=none;align=left;verticalAlign=middle;spacingLeft=4;spacingRight=4;overflow=hidden;points=[[0,0.5],[1,0.5]];portConstraint=eastwest;rotatable=0;whiteSpace=wrap;html=1;" vertex="1" parent="K194ZJ6x8vjtOvq9FhH7-189">
          <mxGeometry y="120" width="230" height="30" as="geometry" />
        </mxCell>
        <mxCell id="K194ZJ6x8vjtOvq9FhH7-195" value="status: VARCHAR(20)" style="text;strokeColor=none;fillColor=none;align=left;verticalAlign=middle;spacingLeft=4;spacingRight=4;overflow=hidden;points=[[0,0.5],[1,0.5]];portConstraint=eastwest;rotatable=0;whiteSpace=wrap;html=1;" vertex="1" parent="K194ZJ6x8vjtOvq9FhH7-189">
          <mxGeometry y="150" width="230" height="30" as="geometry" />
        </mxCell>
        <mxCell id="K194ZJ6x8vjtOvq9FhH7-196" value="renewDate: DATE" style="text;strokeColor=none;fillColor=none;align=left;verticalAlign=middle;spacingLeft=4;spacingRight=4;overflow=hidden;points=[[0,0.5],[1,0.5]];portConstraint=eastwest;rotatable=0;whiteSpace=wrap;html=1;" vertex="1" parent="K194ZJ6x8vjtOvq9FhH7-189">
          <mxGeometry y="180" width="230" height="30" as="geometry" />
        </mxCell>
        <mxCell id="K194ZJ6x8vjtOvq9FhH7-197" value="logoPic:LONGBLOB" style="text;strokeColor=none;fillColor=none;align=left;verticalAlign=middle;spacingLeft=4;spacingRight=4;overflow=hidden;points=[[0,0.5],[1,0.5]];portConstraint=eastwest;rotatable=0;whiteSpace=wrap;html=1;" vertex="1" parent="K194ZJ6x8vjtOvq9FhH7-189">
          <mxGeometry y="210" width="230" height="30" as="geometry" />
        </mxCell>
        <mxCell id="K194ZJ6x8vjtOvq9FhH7-198" value="organization" style="swimlane;fontStyle=0;childLayout=stackLayout;horizontal=1;startSize=30;horizontalStack=0;resizeParent=1;resizeParentMax=0;resizeLast=0;collapsible=1;marginBottom=0;whiteSpace=wrap;html=1;" vertex="1" parent="WIyWlLk6GJQsqaUBKTNV-1">
          <mxGeometry x="105" y="1160" width="230" height="240" as="geometry" />
        </mxCell>
        <mxCell id="K194ZJ6x8vjtOvq9FhH7-199" value="id: INT &amp;lt;PK&amp;gt;" style="text;strokeColor=none;fillColor=none;align=left;verticalAlign=middle;spacingLeft=4;spacingRight=4;overflow=hidden;points=[[0,0.5],[1,0.5]];portConstraint=eastwest;rotatable=0;whiteSpace=wrap;html=1;" vertex="1" parent="K194ZJ6x8vjtOvq9FhH7-198">
          <mxGeometry y="30" width="230" height="30" as="geometry" />
        </mxCell>
        <mxCell id="K194ZJ6x8vjtOvq9FhH7-200" value="orgName: VARCAHR(250)" style="text;strokeColor=none;fillColor=none;align=left;verticalAlign=middle;spacingLeft=4;spacingRight=4;overflow=hidden;points=[[0,0.5],[1,0.5]];portConstraint=eastwest;rotatable=0;whiteSpace=wrap;html=1;" vertex="1" parent="K194ZJ6x8vjtOvq9FhH7-198">
          <mxGeometry y="60" width="230" height="30" as="geometry" />
        </mxCell>
        <mxCell id="K194ZJ6x8vjtOvq9FhH7-201" value="deptId: INT&amp;lt;FK&amp;gt;" style="text;strokeColor=none;fillColor=none;align=left;verticalAlign=middle;spacingLeft=4;spacingRight=4;overflow=hidden;points=[[0,0.5],[1,0.5]];portConstraint=eastwest;rotatable=0;whiteSpace=wrap;html=1;" vertex="1" parent="K194ZJ6x8vjtOvq9FhH7-198">
          <mxGeometry y="90" width="230" height="30" as="geometry" />
        </mxCell>
        <mxCell id="K194ZJ6x8vjtOvq9FhH7-202" value="program_id:VARCHAR(50)" style="text;strokeColor=none;fillColor=none;align=left;verticalAlign=middle;spacingLeft=4;spacingRight=4;overflow=hidden;points=[[0,0.5],[1,0.5]];portConstraint=eastwest;rotatable=0;whiteSpace=wrap;html=1;" vertex="1" parent="K194ZJ6x8vjtOvq9FhH7-198">
          <mxGeometry y="120" width="230" height="30" as="geometry" />
        </mxCell>
        <mxCell id="K194ZJ6x8vjtOvq9FhH7-203" value="status: VARCHAR(20)" style="text;strokeColor=none;fillColor=none;align=left;verticalAlign=middle;spacingLeft=4;spacingRight=4;overflow=hidden;points=[[0,0.5],[1,0.5]];portConstraint=eastwest;rotatable=0;whiteSpace=wrap;html=1;" vertex="1" parent="K194ZJ6x8vjtOvq9FhH7-198">
          <mxGeometry y="150" width="230" height="30" as="geometry" />
        </mxCell>
        <mxCell id="K194ZJ6x8vjtOvq9FhH7-204" value="renewDate: DATE" style="text;strokeColor=none;fillColor=none;align=left;verticalAlign=middle;spacingLeft=4;spacingRight=4;overflow=hidden;points=[[0,0.5],[1,0.5]];portConstraint=eastwest;rotatable=0;whiteSpace=wrap;html=1;" vertex="1" parent="K194ZJ6x8vjtOvq9FhH7-198">
          <mxGeometry y="180" width="230" height="30" as="geometry" />
        </mxCell>
        <mxCell id="K194ZJ6x8vjtOvq9FhH7-205" value="logoPic:LONGBLOB" style="text;strokeColor=none;fillColor=none;align=left;verticalAlign=middle;spacingLeft=4;spacingRight=4;overflow=hidden;points=[[0,0.5],[1,0.5]];portConstraint=eastwest;rotatable=0;whiteSpace=wrap;html=1;" vertex="1" parent="K194ZJ6x8vjtOvq9FhH7-198">
          <mxGeometry y="210" width="230" height="30" as="geometry" />
        </mxCell>
        <mxCell id="K194ZJ6x8vjtOvq9FhH7-216" value="orgApplication" style="swimlane;fontStyle=0;childLayout=stackLayout;horizontal=1;startSize=30;horizontalStack=0;resizeParent=1;resizeParentMax=0;resizeLast=0;collapsible=1;marginBottom=0;whiteSpace=wrap;html=1;" vertex="1" parent="WIyWlLk6GJQsqaUBKTNV-1">
          <mxGeometry x="150" y="1410" width="230" height="270" as="geometry" />
        </mxCell>
        <mxCell id="K194ZJ6x8vjtOvq9FhH7-219" value="student_id: INT &amp;lt;FK&amp;gt;" style="text;strokeColor=none;fillColor=none;align=left;verticalAlign=middle;spacingLeft=4;spacingRight=4;overflow=hidden;points=[[0,0.5],[1,0.5]];portConstraint=eastwest;rotatable=0;whiteSpace=wrap;html=1;" vertex="1" parent="K194ZJ6x8vjtOvq9FhH7-216">
          <mxGeometry y="30" width="230" height="30" as="geometry" />
        </mxCell>
        <mxCell id="K194ZJ6x8vjtOvq9FhH7-220" value="dept_id:INT &amp;lt;FK&amp;gt;" style="text;strokeColor=none;fillColor=none;align=left;verticalAlign=middle;spacingLeft=4;spacingRight=4;overflow=hidden;points=[[0,0.5],[1,0.5]];portConstraint=eastwest;rotatable=0;whiteSpace=wrap;html=1;" vertex="1" parent="K194ZJ6x8vjtOvq9FhH7-216">
          <mxGeometry y="60" width="230" height="30" as="geometry" />
        </mxCell>
        <mxCell id="K194ZJ6x8vjtOvq9FhH7-221" value="submissionType: ENUM" style="text;strokeColor=none;fillColor=none;align=left;verticalAlign=middle;spacingLeft=4;spacingRight=4;overflow=hidden;points=[[0,0.5],[1,0.5]];portConstraint=eastwest;rotatable=0;whiteSpace=wrap;html=1;" vertex="1" parent="K194ZJ6x8vjtOvq9FhH7-216">
          <mxGeometry y="90" width="230" height="30" as="geometry" />
        </mxCell>
        <mxCell id="K194ZJ6x8vjtOvq9FhH7-222" value="orgName:VARCHAR(250)" style="text;strokeColor=none;fillColor=none;align=left;verticalAlign=middle;spacingLeft=4;spacingRight=4;overflow=hidden;points=[[0,0.5],[1,0.5]];portConstraint=eastwest;rotatable=0;whiteSpace=wrap;html=1;" vertex="1" parent="K194ZJ6x8vjtOvq9FhH7-216">
          <mxGeometry y="120" width="230" height="30" as="geometry" />
        </mxCell>
        <mxCell id="K194ZJ6x8vjtOvq9FhH7-223" value="status:ENUM" style="text;strokeColor=none;fillColor=none;align=left;verticalAlign=middle;spacingLeft=4;spacingRight=4;overflow=hidden;points=[[0,0.5],[1,0.5]];portConstraint=eastwest;rotatable=0;whiteSpace=wrap;html=1;" vertex="1" parent="K194ZJ6x8vjtOvq9FhH7-216">
          <mxGeometry y="150" width="230" height="30" as="geometry" />
        </mxCell>
        <mxCell id="K194ZJ6x8vjtOvq9FhH7-224" value="submissionDate:DATE" style="text;strokeColor=none;fillColor=none;align=left;verticalAlign=middle;spacingLeft=4;spacingRight=4;overflow=hidden;points=[[0,0.5],[1,0.5]];portConstraint=eastwest;rotatable=0;whiteSpace=wrap;html=1;" vertex="1" parent="K194ZJ6x8vjtOvq9FhH7-216">
          <mxGeometry y="180" width="230" height="30" as="geometry" />
        </mxCell>
        <mxCell id="K194ZJ6x8vjtOvq9FhH7-217" value="id: INT &amp;lt;PK&amp;gt;" style="text;strokeColor=none;fillColor=none;align=left;verticalAlign=middle;spacingLeft=4;spacingRight=4;overflow=hidden;points=[[0,0.5],[1,0.5]];portConstraint=eastwest;rotatable=0;whiteSpace=wrap;html=1;" vertex="1" parent="K194ZJ6x8vjtOvq9FhH7-216">
          <mxGeometry y="210" width="230" height="30" as="geometry" />
        </mxCell>
        <mxCell id="K194ZJ6x8vjtOvq9FhH7-218" value="orgid: int &amp;lt;FK&amp;gt;" style="text;strokeColor=none;fillColor=none;align=left;verticalAlign=middle;spacingLeft=4;spacingRight=4;overflow=hidden;points=[[0,0.5],[1,0.5]];portConstraint=eastwest;rotatable=0;whiteSpace=wrap;html=1;" vertex="1" parent="K194ZJ6x8vjtOvq9FhH7-216">
          <mxGeometry y="240" width="230" height="30" as="geometry" />
        </mxCell>
        <mxCell id="K194ZJ6x8vjtOvq9FhH7-225" value="programs" style="swimlane;fontStyle=0;childLayout=stackLayout;horizontal=1;startSize=30;horizontalStack=0;resizeParent=1;resizeParentMax=0;resizeLast=0;collapsible=1;marginBottom=0;whiteSpace=wrap;html=1;" vertex="1" parent="WIyWlLk6GJQsqaUBKTNV-1">
          <mxGeometry x="1141" y="330" width="210" height="120" as="geometry" />
        </mxCell>
        <mxCell id="K194ZJ6x8vjtOvq9FhH7-226" value="program_id: INT &amp;lt;PK&amp;gt;" style="text;strokeColor=none;fillColor=none;align=left;verticalAlign=middle;spacingLeft=4;spacingRight=4;overflow=hidden;points=[[0,0.5],[1,0.5]];portConstraint=eastwest;rotatable=0;whiteSpace=wrap;html=1;" vertex="1" parent="K194ZJ6x8vjtOvq9FhH7-225">
          <mxGeometry y="30" width="210" height="30" as="geometry" />
        </mxCell>
        <mxCell id="K194ZJ6x8vjtOvq9FhH7-227" value="program_name: VARCHAR(255)" style="text;strokeColor=none;fillColor=none;align=left;verticalAlign=middle;spacingLeft=4;spacingRight=4;overflow=hidden;points=[[0,0.5],[1,0.5]];portConstraint=eastwest;rotatable=0;whiteSpace=wrap;html=1;" vertex="1" parent="K194ZJ6x8vjtOvq9FhH7-225">
          <mxGeometry y="60" width="210" height="30" as="geometry" />
        </mxCell>
        <mxCell id="K194ZJ6x8vjtOvq9FhH7-230" value="deptId: INT &amp;lt;FK&amp;gt;" style="text;strokeColor=none;fillColor=none;align=left;verticalAlign=middle;spacingLeft=4;spacingRight=4;overflow=hidden;points=[[0,0.5],[1,0.5]];portConstraint=eastwest;rotatable=0;whiteSpace=wrap;html=1;" vertex="1" parent="K194ZJ6x8vjtOvq9FhH7-225">
          <mxGeometry y="90" width="210" height="30" as="geometry" />
        </mxCell>
        <mxCell id="K194ZJ6x8vjtOvq9FhH7-231" value="organiztion" style="swimlane;fontStyle=0;childLayout=stackLayout;horizontal=1;startSize=30;horizontalStack=0;resizeParent=1;resizeParentMax=0;resizeLast=0;collapsible=1;marginBottom=0;whiteSpace=wrap;html=1;" vertex="1" parent="WIyWlLk6GJQsqaUBKTNV-1">
          <mxGeometry x="1141" y="620" width="210" height="30" as="geometry" />
        </mxCell>
        <mxCell id="K194ZJ6x8vjtOvq9FhH7-241" value="events" style="swimlane;fontStyle=0;childLayout=stackLayout;horizontal=1;startSize=30;horizontalStack=0;resizeParent=1;resizeParentMax=0;resizeLast=0;collapsible=1;marginBottom=0;whiteSpace=wrap;html=1;" vertex="1" parent="WIyWlLk6GJQsqaUBKTNV-1">
          <mxGeometry x="1141" y="750" width="210" height="270" as="geometry" />
        </mxCell>
        <mxCell id="K194ZJ6x8vjtOvq9FhH7-242" value="event_id" style="text;strokeColor=none;fillColor=none;align=left;verticalAlign=middle;spacingLeft=4;spacingRight=4;overflow=hidden;points=[[0,0.5],[1,0.5]];portConstraint=eastwest;rotatable=0;whiteSpace=wrap;html=1;" vertex="1" parent="K194ZJ6x8vjtOvq9FhH7-241">
          <mxGeometry y="30" width="210" height="30" as="geometry" />
        </mxCell>
        <mxCell id="K194ZJ6x8vjtOvq9FhH7-243" value="orgid: INT &amp;lt;FK&amp;gt;" style="text;strokeColor=none;fillColor=none;align=left;verticalAlign=middle;spacingLeft=4;spacingRight=4;overflow=hidden;points=[[0,0.5],[1,0.5]];portConstraint=eastwest;rotatable=0;whiteSpace=wrap;html=1;" vertex="1" parent="K194ZJ6x8vjtOvq9FhH7-241">
          <mxGeometry y="60" width="210" height="30" as="geometry" />
        </mxCell>
        <mxCell id="K194ZJ6x8vjtOvq9FhH7-244" value="title: VARCHAR(250)" style="text;strokeColor=none;fillColor=none;align=left;verticalAlign=middle;spacingLeft=4;spacingRight=4;overflow=hidden;points=[[0,0.5],[1,0.5]];portConstraint=eastwest;rotatable=0;whiteSpace=wrap;html=1;" vertex="1" parent="K194ZJ6x8vjtOvq9FhH7-241">
          <mxGeometry y="90" width="210" height="30" as="geometry" />
        </mxCell>
        <mxCell id="K194ZJ6x8vjtOvq9FhH7-245" value="start_date:DATE" style="text;strokeColor=none;fillColor=none;align=left;verticalAlign=middle;spacingLeft=4;spacingRight=4;overflow=hidden;points=[[0,0.5],[1,0.5]];portConstraint=eastwest;rotatable=0;whiteSpace=wrap;html=1;" vertex="1" parent="K194ZJ6x8vjtOvq9FhH7-241">
          <mxGeometry y="120" width="210" height="30" as="geometry" />
        </mxCell>
        <mxCell id="K194ZJ6x8vjtOvq9FhH7-246" value="duration_days: INT" style="text;strokeColor=none;fillColor=none;align=left;verticalAlign=middle;spacingLeft=4;spacingRight=4;overflow=hidden;points=[[0,0.5],[1,0.5]];portConstraint=eastwest;rotatable=0;whiteSpace=wrap;html=1;" vertex="1" parent="K194ZJ6x8vjtOvq9FhH7-241">
          <mxGeometry y="150" width="210" height="30" as="geometry" />
        </mxCell>
        <mxCell id="K194ZJ6x8vjtOvq9FhH7-247" value="venue:VARCHAR(250)" style="text;strokeColor=none;fillColor=none;align=left;verticalAlign=middle;spacingLeft=4;spacingRight=4;overflow=hidden;points=[[0,0.5],[1,0.5]];portConstraint=eastwest;rotatable=0;whiteSpace=wrap;html=1;" vertex="1" parent="K194ZJ6x8vjtOvq9FhH7-241">
          <mxGeometry y="180" width="210" height="30" as="geometry" />
        </mxCell>
        <mxCell id="K194ZJ6x8vjtOvq9FhH7-248" value="created_at:TIMESTAMP" style="text;strokeColor=none;fillColor=none;align=left;verticalAlign=middle;spacingLeft=4;spacingRight=4;overflow=hidden;points=[[0,0.5],[1,0.5]];portConstraint=eastwest;rotatable=0;whiteSpace=wrap;html=1;" vertex="1" parent="K194ZJ6x8vjtOvq9FhH7-241">
          <mxGeometry y="210" width="210" height="30" as="geometry" />
        </mxCell>
        <mxCell id="K194ZJ6x8vjtOvq9FhH7-249" value="updated_at:TIMESTAMP" style="text;strokeColor=none;fillColor=none;align=left;verticalAlign=middle;spacingLeft=4;spacingRight=4;overflow=hidden;points=[[0,0.5],[1,0.5]];portConstraint=eastwest;rotatable=0;whiteSpace=wrap;html=1;" vertex="1" parent="K194ZJ6x8vjtOvq9FhH7-241">
          <mxGeometry y="240" width="210" height="30" as="geometry" />
        </mxCell>
        <mxCell id="K194ZJ6x8vjtOvq9FhH7-250" value="documents" style="swimlane;fontStyle=0;childLayout=stackLayout;horizontal=1;startSize=30;horizontalStack=0;resizeParent=1;resizeParentMax=0;resizeLast=0;collapsible=1;marginBottom=0;whiteSpace=wrap;html=1;" vertex="1" parent="WIyWlLk6GJQsqaUBKTNV-1">
          <mxGeometry x="1875.5" y="-360" width="210" height="150" as="geometry" />
        </mxCell>
        <mxCell id="K194ZJ6x8vjtOvq9FhH7-251" value="id:INT&amp;lt;PK&amp;gt;" style="text;strokeColor=none;fillColor=none;align=left;verticalAlign=middle;spacingLeft=4;spacingRight=4;overflow=hidden;points=[[0,0.5],[1,0.5]];portConstraint=eastwest;rotatable=0;whiteSpace=wrap;html=1;" vertex="1" parent="K194ZJ6x8vjtOvq9FhH7-250">
          <mxGeometry y="30" width="210" height="30" as="geometry" />
        </mxCell>
        <mxCell id="K194ZJ6x8vjtOvq9FhH7-252" value="department:VARCHAR(250)" style="text;strokeColor=none;fillColor=none;align=left;verticalAlign=middle;spacingLeft=4;spacingRight=4;overflow=hidden;points=[[0,0.5],[1,0.5]];portConstraint=eastwest;rotatable=0;whiteSpace=wrap;html=1;" vertex="1" parent="K194ZJ6x8vjtOvq9FhH7-250">
          <mxGeometry y="60" width="210" height="30" as="geometry" />
        </mxCell>
        <mxCell id="K194ZJ6x8vjtOvq9FhH7-253" value="created_at:TIMESTAMP" style="text;strokeColor=none;fillColor=none;align=left;verticalAlign=middle;spacingLeft=4;spacingRight=4;overflow=hidden;points=[[0,0.5],[1,0.5]];portConstraint=eastwest;rotatable=0;whiteSpace=wrap;html=1;" vertex="1" parent="K194ZJ6x8vjtOvq9FhH7-250">
          <mxGeometry y="90" width="210" height="30" as="geometry" />
        </mxCell>
        <mxCell id="K194ZJ6x8vjtOvq9FhH7-254" value="updated_at:TIMESTAMP" style="text;strokeColor=none;fillColor=none;align=left;verticalAlign=middle;spacingLeft=4;spacingRight=4;overflow=hidden;points=[[0,0.5],[1,0.5]];portConstraint=eastwest;rotatable=0;whiteSpace=wrap;html=1;" vertex="1" parent="K194ZJ6x8vjtOvq9FhH7-250">
          <mxGeometry y="120" width="210" height="30" as="geometry" />
        </mxCell>
        <mxCell id="K194ZJ6x8vjtOvq9FhH7-255" value="Department" style="swimlane;fontStyle=0;childLayout=stackLayout;horizontal=1;startSize=30;horizontalStack=0;resizeParent=1;resizeParentMax=0;resizeLast=0;collapsible=1;marginBottom=0;whiteSpace=wrap;html=1;" vertex="1" parent="WIyWlLk6GJQsqaUBKTNV-1">
          <mxGeometry x="660" y="160" width="210" height="20" as="geometry" />
        </mxCell>
        <mxCell id="K194ZJ6x8vjtOvq9FhH7-264" value="employee" style="swimlane;fontStyle=0;childLayout=stackLayout;horizontal=1;startSize=30;horizontalStack=0;resizeParent=1;resizeParentMax=0;resizeLast=0;collapsible=1;marginBottom=0;whiteSpace=wrap;html=1;" vertex="1" parent="WIyWlLk6GJQsqaUBKTNV-1">
          <mxGeometry x="2655" y="-240" width="340" height="150" as="geometry" />
        </mxCell>
        <mxCell id="K194ZJ6x8vjtOvq9FhH7-265" value="id:INT &amp;lt;PK&amp;gt;" style="text;strokeColor=none;fillColor=none;align=left;verticalAlign=middle;spacingLeft=4;spacingRight=4;overflow=hidden;points=[[0,0.5],[1,0.5]];portConstraint=eastwest;rotatable=0;whiteSpace=wrap;html=1;" vertex="1" parent="K194ZJ6x8vjtOvq9FhH7-264">
          <mxGeometry y="30" width="340" height="30" as="geometry" />
        </mxCell>
        <mxCell id="K194ZJ6x8vjtOvq9FhH7-266" value="employee_numbter: VARCHAR(20) PK" style="text;strokeColor=none;fillColor=none;align=left;verticalAlign=middle;spacingLeft=4;spacingRight=4;overflow=hidden;points=[[0,0.5],[1,0.5]];portConstraint=eastwest;rotatable=0;whiteSpace=wrap;html=1;" vertex="1" parent="K194ZJ6x8vjtOvq9FhH7-264">
          <mxGeometry y="60" width="340" height="30" as="geometry" />
        </mxCell>
        <mxCell id="K194ZJ6x8vjtOvq9FhH7-267" value="employee_name: VARCHAR(250)" style="text;strokeColor=none;fillColor=none;align=left;verticalAlign=middle;spacingLeft=4;spacingRight=4;overflow=hidden;points=[[0,0.5],[1,0.5]];portConstraint=eastwest;rotatable=0;whiteSpace=wrap;html=1;" vertex="1" parent="K194ZJ6x8vjtOvq9FhH7-264">
          <mxGeometry y="90" width="340" height="30" as="geometry" />
        </mxCell>
        <mxCell id="K194ZJ6x8vjtOvq9FhH7-268" value="department:INT &amp;lt;FK&amp;gt;" style="text;strokeColor=none;fillColor=none;align=left;verticalAlign=middle;spacingLeft=4;spacingRight=4;overflow=hidden;points=[[0,0.5],[1,0.5]];portConstraint=eastwest;rotatable=0;whiteSpace=wrap;html=1;" vertex="1" parent="K194ZJ6x8vjtOvq9FhH7-264">
          <mxGeometry y="120" width="340" height="30" as="geometry" />
        </mxCell>
        <mxCell id="K194ZJ6x8vjtOvq9FhH7-271" value="documents" style="swimlane;fontStyle=0;childLayout=stackLayout;horizontal=1;startSize=30;horizontalStack=0;resizeParent=1;resizeParentMax=0;resizeLast=0;collapsible=1;marginBottom=0;whiteSpace=wrap;html=1;" vertex="1" parent="WIyWlLk6GJQsqaUBKTNV-1">
          <mxGeometry x="-20" y="310" width="210" height="150" as="geometry" />
        </mxCell>
        <mxCell id="K194ZJ6x8vjtOvq9FhH7-272" value="id:INT&amp;lt;PK&amp;gt;" style="text;strokeColor=none;fillColor=none;align=left;verticalAlign=middle;spacingLeft=4;spacingRight=4;overflow=hidden;points=[[0,0.5],[1,0.5]];portConstraint=eastwest;rotatable=0;whiteSpace=wrap;html=1;" vertex="1" parent="K194ZJ6x8vjtOvq9FhH7-271">
          <mxGeometry y="30" width="210" height="30" as="geometry" />
        </mxCell>
        <mxCell id="K194ZJ6x8vjtOvq9FhH7-273" value="department:VARCHAR(250)" style="text;strokeColor=none;fillColor=none;align=left;verticalAlign=middle;spacingLeft=4;spacingRight=4;overflow=hidden;points=[[0,0.5],[1,0.5]];portConstraint=eastwest;rotatable=0;whiteSpace=wrap;html=1;" vertex="1" parent="K194ZJ6x8vjtOvq9FhH7-271">
          <mxGeometry y="60" width="210" height="30" as="geometry" />
        </mxCell>
        <mxCell id="K194ZJ6x8vjtOvq9FhH7-274" value="created_at:TIMESTAMP" style="text;strokeColor=none;fillColor=none;align=left;verticalAlign=middle;spacingLeft=4;spacingRight=4;overflow=hidden;points=[[0,0.5],[1,0.5]];portConstraint=eastwest;rotatable=0;whiteSpace=wrap;html=1;" vertex="1" parent="K194ZJ6x8vjtOvq9FhH7-271">
          <mxGeometry y="90" width="210" height="30" as="geometry" />
        </mxCell>
        <mxCell id="K194ZJ6x8vjtOvq9FhH7-275" value="updated_at:TIMESTAMP" style="text;strokeColor=none;fillColor=none;align=left;verticalAlign=middle;spacingLeft=4;spacingRight=4;overflow=hidden;points=[[0,0.5],[1,0.5]];portConstraint=eastwest;rotatable=0;whiteSpace=wrap;html=1;" vertex="1" parent="K194ZJ6x8vjtOvq9FhH7-271">
          <mxGeometry y="120" width="210" height="30" as="geometry" />
        </mxCell>
        <mxCell id="K194ZJ6x8vjtOvq9FhH7-283" value="referrals" style="swimlane;fontStyle=0;childLayout=stackLayout;horizontal=1;startSize=30;horizontalStack=0;resizeParent=1;resizeParentMax=0;resizeLast=0;collapsible=1;marginBottom=0;whiteSpace=wrap;html=1;" vertex="1" parent="WIyWlLk6GJQsqaUBKTNV-1">
          <mxGeometry x="2655" y="70" width="340" height="120" as="geometry" />
        </mxCell>
        <mxCell id="K194ZJ6x8vjtOvq9FhH7-284" value="id:INT &amp;lt;PK&amp;gt;" style="text;strokeColor=none;fillColor=none;align=left;verticalAlign=middle;spacingLeft=4;spacingRight=4;overflow=hidden;points=[[0,0.5],[1,0.5]];portConstraint=eastwest;rotatable=0;whiteSpace=wrap;html=1;" vertex="1" parent="K194ZJ6x8vjtOvq9FhH7-283">
          <mxGeometry y="30" width="340" height="30" as="geometry" />
        </mxCell>
        <mxCell id="K194ZJ6x8vjtOvq9FhH7-285" value="case_number:INT&amp;nbsp;" style="text;strokeColor=none;fillColor=none;align=left;verticalAlign=middle;spacingLeft=4;spacingRight=4;overflow=hidden;points=[[0,0.5],[1,0.5]];portConstraint=eastwest;rotatable=0;whiteSpace=wrap;html=1;" vertex="1" parent="K194ZJ6x8vjtOvq9FhH7-283">
          <mxGeometry y="60" width="340" height="30" as="geometry" />
        </mxCell>
        <mxCell id="K194ZJ6x8vjtOvq9FhH7-286" value="submitted_bt: INT&amp;lt;PK&amp;gt;" style="text;strokeColor=none;fillColor=none;align=left;verticalAlign=middle;spacingLeft=4;spacingRight=4;overflow=hidden;points=[[0,0.5],[1,0.5]];portConstraint=eastwest;rotatable=0;whiteSpace=wrap;html=1;" vertex="1" parent="K194ZJ6x8vjtOvq9FhH7-283">
          <mxGeometry y="90" width="340" height="30" as="geometry" />
        </mxCell>
        <mxCell id="K194ZJ6x8vjtOvq9FhH7-293" value="referrals" style="swimlane;fontStyle=0;childLayout=stackLayout;horizontal=1;startSize=30;horizontalStack=0;resizeParent=1;resizeParentMax=0;resizeLast=0;collapsible=1;marginBottom=0;whiteSpace=wrap;html=1;" vertex="1" parent="WIyWlLk6GJQsqaUBKTNV-1">
          <mxGeometry x="2530" y="325" width="170" height="120" as="geometry" />
        </mxCell>
        <mxCell id="K194ZJ6x8vjtOvq9FhH7-294" value="id:INT &amp;lt;PK&amp;gt;" style="text;strokeColor=none;fillColor=none;align=left;verticalAlign=middle;spacingLeft=4;spacingRight=4;overflow=hidden;points=[[0,0.5],[1,0.5]];portConstraint=eastwest;rotatable=0;whiteSpace=wrap;html=1;" vertex="1" parent="K194ZJ6x8vjtOvq9FhH7-293">
          <mxGeometry y="30" width="170" height="30" as="geometry" />
        </mxCell>
        <mxCell id="K194ZJ6x8vjtOvq9FhH7-295" value="referral_id:int&amp;lt;FK&amp;gt;" style="text;strokeColor=none;fillColor=none;align=left;verticalAlign=middle;spacingLeft=4;spacingRight=4;overflow=hidden;points=[[0,0.5],[1,0.5]];portConstraint=eastwest;rotatable=0;whiteSpace=wrap;html=1;" vertex="1" parent="K194ZJ6x8vjtOvq9FhH7-293">
          <mxGeometry y="60" width="170" height="30" as="geometry" />
        </mxCell>
        <mxCell id="K194ZJ6x8vjtOvq9FhH7-296" value="student_id:INT &amp;lt;FK&amp;gt;" style="text;strokeColor=none;fillColor=none;align=left;verticalAlign=middle;spacingLeft=4;spacingRight=4;overflow=hidden;points=[[0,0.5],[1,0.5]];portConstraint=eastwest;rotatable=0;whiteSpace=wrap;html=1;" vertex="1" parent="K194ZJ6x8vjtOvq9FhH7-293">
          <mxGeometry y="90" width="170" height="30" as="geometry" />
        </mxCell>
        <mxCell id="K194ZJ6x8vjtOvq9FhH7-304" value="referrals" style="swimlane;fontStyle=0;childLayout=stackLayout;horizontal=1;startSize=30;horizontalStack=0;resizeParent=1;resizeParentMax=0;resizeLast=0;collapsible=1;marginBottom=0;whiteSpace=wrap;html=1;" vertex="1" parent="WIyWlLk6GJQsqaUBKTNV-1">
          <mxGeometry x="2950" y="325" width="170" height="120" as="geometry" />
        </mxCell>
        <mxCell id="K194ZJ6x8vjtOvq9FhH7-305" value="id:INT &amp;lt;PK&amp;gt;" style="text;strokeColor=none;fillColor=none;align=left;verticalAlign=middle;spacingLeft=4;spacingRight=4;overflow=hidden;points=[[0,0.5],[1,0.5]];portConstraint=eastwest;rotatable=0;whiteSpace=wrap;html=1;" vertex="1" parent="K194ZJ6x8vjtOvq9FhH7-304">
          <mxGeometry y="30" width="170" height="30" as="geometry" />
        </mxCell>
        <mxCell id="K194ZJ6x8vjtOvq9FhH7-306" value="referral_id:int&amp;lt;FK&amp;gt;" style="text;strokeColor=none;fillColor=none;align=left;verticalAlign=middle;spacingLeft=4;spacingRight=4;overflow=hidden;points=[[0,0.5],[1,0.5]];portConstraint=eastwest;rotatable=0;whiteSpace=wrap;html=1;" vertex="1" parent="K194ZJ6x8vjtOvq9FhH7-304">
          <mxGeometry y="60" width="170" height="30" as="geometry" />
        </mxCell>
        <mxCell id="K194ZJ6x8vjtOvq9FhH7-307" value="concern:VARCHAR(50)" style="text;strokeColor=none;fillColor=none;align=left;verticalAlign=middle;spacingLeft=4;spacingRight=4;overflow=hidden;points=[[0,0.5],[1,0.5]];portConstraint=eastwest;rotatable=0;whiteSpace=wrap;html=1;" vertex="1" parent="K194ZJ6x8vjtOvq9FhH7-304">
          <mxGeometry y="90" width="170" height="30" as="geometry" />
        </mxCell>
        <mxCell id="K194ZJ6x8vjtOvq9FhH7-308" value="students" style="swimlane;fontStyle=0;childLayout=stackLayout;horizontal=1;startSize=30;horizontalStack=0;resizeParent=1;resizeParentMax=0;resizeLast=0;collapsible=1;marginBottom=0;whiteSpace=wrap;html=1;" vertex="1" parent="WIyWlLk6GJQsqaUBKTNV-1">
          <mxGeometry x="720" y="545" width="210" height="270" as="geometry" />
        </mxCell>
        <mxCell id="K194ZJ6x8vjtOvq9FhH7-309" value="student_id: INT &amp;lt;PK&amp;gt;" style="text;strokeColor=none;fillColor=none;align=left;verticalAlign=middle;spacingLeft=4;spacingRight=4;overflow=hidden;points=[[0,0.5],[1,0.5]];portConstraint=eastwest;rotatable=0;whiteSpace=wrap;html=1;" vertex="1" parent="K194ZJ6x8vjtOvq9FhH7-308">
          <mxGeometry y="30" width="210" height="30" as="geometry" />
        </mxCell>
        <mxCell id="K194ZJ6x8vjtOvq9FhH7-310" value="student_number: VARCHAR(20)" style="text;strokeColor=none;fillColor=none;align=left;verticalAlign=middle;spacingLeft=4;spacingRight=4;overflow=hidden;points=[[0,0.5],[1,0.5]];portConstraint=eastwest;rotatable=0;whiteSpace=wrap;html=1;" vertex="1" parent="K194ZJ6x8vjtOvq9FhH7-308">
          <mxGeometry y="60" width="210" height="30" as="geometry" />
        </mxCell>
        <mxCell id="K194ZJ6x8vjtOvq9FhH7-311" value="name: VARCHAR(255)" style="text;strokeColor=none;fillColor=none;align=left;verticalAlign=middle;spacingLeft=4;spacingRight=4;overflow=hidden;points=[[0,0.5],[1,0.5]];portConstraint=eastwest;rotatable=0;whiteSpace=wrap;html=1;" vertex="1" parent="K194ZJ6x8vjtOvq9FhH7-308">
          <mxGeometry y="90" width="210" height="30" as="geometry" />
        </mxCell>
        <mxCell id="K194ZJ6x8vjtOvq9FhH7-319" value="email: VARCHAR(255)" style="text;strokeColor=none;fillColor=none;align=left;verticalAlign=middle;spacingLeft=4;spacingRight=4;overflow=hidden;points=[[0,0.5],[1,0.5]];portConstraint=eastwest;rotatable=0;whiteSpace=wrap;html=1;" vertex="1" parent="K194ZJ6x8vjtOvq9FhH7-308">
          <mxGeometry y="120" width="210" height="30" as="geometry" />
        </mxCell>
        <mxCell id="K194ZJ6x8vjtOvq9FhH7-320" value="program:INT &amp;lt;FK&amp;gt;" style="text;strokeColor=none;fillColor=none;align=left;verticalAlign=middle;spacingLeft=4;spacingRight=4;overflow=hidden;points=[[0,0.5],[1,0.5]];portConstraint=eastwest;rotatable=0;whiteSpace=wrap;html=1;" vertex="1" parent="K194ZJ6x8vjtOvq9FhH7-308">
          <mxGeometry y="150" width="210" height="30" as="geometry" />
        </mxCell>
        <mxCell id="K194ZJ6x8vjtOvq9FhH7-328" value="program:INT &amp;lt;FK&amp;gt;" style="text;strokeColor=none;fillColor=none;align=left;verticalAlign=middle;spacingLeft=4;spacingRight=4;overflow=hidden;points=[[0,0.5],[1,0.5]];portConstraint=eastwest;rotatable=0;whiteSpace=wrap;html=1;" vertex="1" parent="K194ZJ6x8vjtOvq9FhH7-308">
          <mxGeometry y="180" width="210" height="30" as="geometry" />
        </mxCell>
        <mxCell id="K194ZJ6x8vjtOvq9FhH7-329" value="created_at:TIMESTAMP" style="text;strokeColor=none;fillColor=none;align=left;verticalAlign=middle;spacingLeft=4;spacingRight=4;overflow=hidden;points=[[0,0.5],[1,0.5]];portConstraint=eastwest;rotatable=0;whiteSpace=wrap;html=1;" vertex="1" parent="K194ZJ6x8vjtOvq9FhH7-308">
          <mxGeometry y="210" width="210" height="30" as="geometry" />
        </mxCell>
        <mxCell id="K194ZJ6x8vjtOvq9FhH7-318" value="updated_at:TIMESTAMP" style="text;strokeColor=none;fillColor=none;align=left;verticalAlign=middle;spacingLeft=4;spacingRight=4;overflow=hidden;points=[[0,0.5],[1,0.5]];portConstraint=eastwest;rotatable=0;whiteSpace=wrap;html=1;" vertex="1" parent="K194ZJ6x8vjtOvq9FhH7-308">
          <mxGeometry y="240" width="210" height="30" as="geometry" />
        </mxCell>
        <mxCell id="K194ZJ6x8vjtOvq9FhH7-330" value="assistance&amp;nbsp;" style="swimlane;fontStyle=0;childLayout=stackLayout;horizontal=1;startSize=30;horizontalStack=0;resizeParent=1;resizeParentMax=0;resizeLast=0;collapsible=1;marginBottom=0;whiteSpace=wrap;html=1;" vertex="1" parent="WIyWlLk6GJQsqaUBKTNV-1">
          <mxGeometry x="480" y="1190" width="210" height="210" as="geometry" />
        </mxCell>
        <mxCell id="K194ZJ6x8vjtOvq9FhH7-331" value="id: INT &amp;lt;PK&amp;gt;" style="text;strokeColor=none;fillColor=none;align=left;verticalAlign=middle;spacingLeft=4;spacingRight=4;overflow=hidden;points=[[0,0.5],[1,0.5]];portConstraint=eastwest;rotatable=0;whiteSpace=wrap;html=1;" vertex="1" parent="K194ZJ6x8vjtOvq9FhH7-330">
          <mxGeometry y="30" width="210" height="30" as="geometry" />
        </mxCell>
        <mxCell id="K194ZJ6x8vjtOvq9FhH7-332" value="student_number: VARCHAR &amp;lt;FK&amp;gt;" style="text;strokeColor=none;fillColor=none;align=left;verticalAlign=middle;spacingLeft=4;spacingRight=4;overflow=hidden;points=[[0,0.5],[1,0.5]];portConstraint=eastwest;rotatable=0;whiteSpace=wrap;html=1;" vertex="1" parent="K194ZJ6x8vjtOvq9FhH7-330">
          <mxGeometry y="60" width="210" height="30" as="geometry" />
        </mxCell>
        <mxCell id="K194ZJ6x8vjtOvq9FhH7-334" value="college: INT &amp;lt;FK&amp;gt;" style="text;strokeColor=none;fillColor=none;align=left;verticalAlign=middle;spacingLeft=4;spacingRight=4;overflow=hidden;points=[[0,0.5],[1,0.5]];portConstraint=eastwest;rotatable=0;whiteSpace=wrap;html=1;" vertex="1" parent="K194ZJ6x8vjtOvq9FhH7-330">
          <mxGeometry y="90" width="210" height="30" as="geometry" />
        </mxCell>
        <mxCell id="K194ZJ6x8vjtOvq9FhH7-335" value="program: INT &amp;lt;FX&amp;gt;" style="text;strokeColor=none;fillColor=none;align=left;verticalAlign=middle;spacingLeft=4;spacingRight=4;overflow=hidden;points=[[0,0.5],[1,0.5]];portConstraint=eastwest;rotatable=0;whiteSpace=wrap;html=1;" vertex="1" parent="K194ZJ6x8vjtOvq9FhH7-330">
          <mxGeometry y="120" width="210" height="30" as="geometry" />
        </mxCell>
        <mxCell id="K194ZJ6x8vjtOvq9FhH7-336" value="year_levle: INT&amp;nbsp;&lt;span style=&quot;white-space: pre;&quot;&gt;&#x9;&lt;/span&gt;" style="text;strokeColor=none;fillColor=none;align=left;verticalAlign=middle;spacingLeft=4;spacingRight=4;overflow=hidden;points=[[0,0.5],[1,0.5]];portConstraint=eastwest;rotatable=0;whiteSpace=wrap;html=1;" vertex="1" parent="K194ZJ6x8vjtOvq9FhH7-330">
          <mxGeometry y="150" width="210" height="30" as="geometry" />
        </mxCell>
        <mxCell id="K194ZJ6x8vjtOvq9FhH7-337" value="status:ENUM" style="text;strokeColor=none;fillColor=none;align=left;verticalAlign=middle;spacingLeft=4;spacingRight=4;overflow=hidden;points=[[0,0.5],[1,0.5]];portConstraint=eastwest;rotatable=0;whiteSpace=wrap;html=1;" vertex="1" parent="K194ZJ6x8vjtOvq9FhH7-330">
          <mxGeometry y="180" width="210" height="30" as="geometry" />
        </mxCell>
        <mxCell id="K194ZJ6x8vjtOvq9FhH7-340" value="student_officers" style="swimlane;fontStyle=0;childLayout=stackLayout;horizontal=1;startSize=30;horizontalStack=0;resizeParent=1;resizeParentMax=0;resizeLast=0;collapsible=1;marginBottom=0;whiteSpace=wrap;html=1;" vertex="1" parent="WIyWlLk6GJQsqaUBKTNV-1">
          <mxGeometry x="730" y="1190" width="210" height="210" as="geometry" />
        </mxCell>
        <mxCell id="K194ZJ6x8vjtOvq9FhH7-341" value="officers_id: INT &amp;lt;PK&amp;gt;" style="text;strokeColor=none;fillColor=none;align=left;verticalAlign=middle;spacingLeft=4;spacingRight=4;overflow=hidden;points=[[0,0.5],[1,0.5]];portConstraint=eastwest;rotatable=0;whiteSpace=wrap;html=1;" vertex="1" parent="K194ZJ6x8vjtOvq9FhH7-340">
          <mxGeometry y="30" width="210" height="30" as="geometry" />
        </mxCell>
        <mxCell id="K194ZJ6x8vjtOvq9FhH7-342" value="student_id: INT &amp;lt;FK&amp;gt;" style="text;strokeColor=none;fillColor=none;align=left;verticalAlign=middle;spacingLeft=4;spacingRight=4;overflow=hidden;points=[[0,0.5],[1,0.5]];portConstraint=eastwest;rotatable=0;whiteSpace=wrap;html=1;" vertex="1" parent="K194ZJ6x8vjtOvq9FhH7-340">
          <mxGeometry y="60" width="210" height="30" as="geometry" />
        </mxCell>
        <mxCell id="K194ZJ6x8vjtOvq9FhH7-343" value="org: INT &amp;lt;FK&amp;gt;" style="text;strokeColor=none;fillColor=none;align=left;verticalAlign=middle;spacingLeft=4;spacingRight=4;overflow=hidden;points=[[0,0.5],[1,0.5]];portConstraint=eastwest;rotatable=0;whiteSpace=wrap;html=1;" vertex="1" parent="K194ZJ6x8vjtOvq9FhH7-340">
          <mxGeometry y="90" width="210" height="30" as="geometry" />
        </mxCell>
        <mxCell id="K194ZJ6x8vjtOvq9FhH7-344" value="position: VARCHAR&amp;lt;100&amp;gt;" style="text;strokeColor=none;fillColor=none;align=left;verticalAlign=middle;spacingLeft=4;spacingRight=4;overflow=hidden;points=[[0,0.5],[1,0.5]];portConstraint=eastwest;rotatable=0;whiteSpace=wrap;html=1;" vertex="1" parent="K194ZJ6x8vjtOvq9FhH7-340">
          <mxGeometry y="120" width="210" height="30" as="geometry" />
        </mxCell>
        <mxCell id="K194ZJ6x8vjtOvq9FhH7-345" value="created_at: TIMESTAMP" style="text;strokeColor=none;fillColor=none;align=left;verticalAlign=middle;spacingLeft=4;spacingRight=4;overflow=hidden;points=[[0,0.5],[1,0.5]];portConstraint=eastwest;rotatable=0;whiteSpace=wrap;html=1;" vertex="1" parent="K194ZJ6x8vjtOvq9FhH7-340">
          <mxGeometry y="150" width="210" height="30" as="geometry" />
        </mxCell>
        <mxCell id="K194ZJ6x8vjtOvq9FhH7-346" value="updated_at: TIMESTAMP" style="text;strokeColor=none;fillColor=none;align=left;verticalAlign=middle;spacingLeft=4;spacingRight=4;overflow=hidden;points=[[0,0.5],[1,0.5]];portConstraint=eastwest;rotatable=0;whiteSpace=wrap;html=1;" vertex="1" parent="K194ZJ6x8vjtOvq9FhH7-340">
          <mxGeometry y="180" width="210" height="30" as="geometry" />
        </mxCell>
        <mxCell id="K194ZJ6x8vjtOvq9FhH7-350" value="student_officers" style="swimlane;fontStyle=0;childLayout=stackLayout;horizontal=1;startSize=30;horizontalStack=0;resizeParent=1;resizeParentMax=0;resizeLast=0;collapsible=1;marginBottom=0;whiteSpace=wrap;html=1;" vertex="1" parent="WIyWlLk6GJQsqaUBKTNV-1">
          <mxGeometry x="980" y="1190" width="210" height="210" as="geometry" />
        </mxCell>
        <mxCell id="K194ZJ6x8vjtOvq9FhH7-351" value="officers_id: INT &amp;lt;PK&amp;gt;" style="text;strokeColor=none;fillColor=none;align=left;verticalAlign=middle;spacingLeft=4;spacingRight=4;overflow=hidden;points=[[0,0.5],[1,0.5]];portConstraint=eastwest;rotatable=0;whiteSpace=wrap;html=1;" vertex="1" parent="K194ZJ6x8vjtOvq9FhH7-350">
          <mxGeometry y="30" width="210" height="30" as="geometry" />
        </mxCell>
        <mxCell id="K194ZJ6x8vjtOvq9FhH7-352" value="student_id: INT &amp;lt;FK&amp;gt;" style="text;strokeColor=none;fillColor=none;align=left;verticalAlign=middle;spacingLeft=4;spacingRight=4;overflow=hidden;points=[[0,0.5],[1,0.5]];portConstraint=eastwest;rotatable=0;whiteSpace=wrap;html=1;" vertex="1" parent="K194ZJ6x8vjtOvq9FhH7-350">
          <mxGeometry y="60" width="210" height="30" as="geometry" />
        </mxCell>
        <mxCell id="K194ZJ6x8vjtOvq9FhH7-353" value="org: INT &amp;lt;FK&amp;gt;" style="text;strokeColor=none;fillColor=none;align=left;verticalAlign=middle;spacingLeft=4;spacingRight=4;overflow=hidden;points=[[0,0.5],[1,0.5]];portConstraint=eastwest;rotatable=0;whiteSpace=wrap;html=1;" vertex="1" parent="K194ZJ6x8vjtOvq9FhH7-350">
          <mxGeometry y="90" width="210" height="30" as="geometry" />
        </mxCell>
        <mxCell id="K194ZJ6x8vjtOvq9FhH7-354" value="position: VARCHAR&amp;lt;100&amp;gt;" style="text;strokeColor=none;fillColor=none;align=left;verticalAlign=middle;spacingLeft=4;spacingRight=4;overflow=hidden;points=[[0,0.5],[1,0.5]];portConstraint=eastwest;rotatable=0;whiteSpace=wrap;html=1;" vertex="1" parent="K194ZJ6x8vjtOvq9FhH7-350">
          <mxGeometry y="120" width="210" height="30" as="geometry" />
        </mxCell>
        <mxCell id="K194ZJ6x8vjtOvq9FhH7-355" value="created_at: TIMESTAMP" style="text;strokeColor=none;fillColor=none;align=left;verticalAlign=middle;spacingLeft=4;spacingRight=4;overflow=hidden;points=[[0,0.5],[1,0.5]];portConstraint=eastwest;rotatable=0;whiteSpace=wrap;html=1;" vertex="1" parent="K194ZJ6x8vjtOvq9FhH7-350">
          <mxGeometry y="150" width="210" height="30" as="geometry" />
        </mxCell>
        <mxCell id="K194ZJ6x8vjtOvq9FhH7-356" value="updated_at: TIMESTAMP" style="text;strokeColor=none;fillColor=none;align=left;verticalAlign=middle;spacingLeft=4;spacingRight=4;overflow=hidden;points=[[0,0.5],[1,0.5]];portConstraint=eastwest;rotatable=0;whiteSpace=wrap;html=1;" vertex="1" parent="K194ZJ6x8vjtOvq9FhH7-350">
          <mxGeometry y="180" width="210" height="30" as="geometry" />
        </mxCell>
        <mxCell id="K194ZJ6x8vjtOvq9FhH7-377" value="evalation_responses" style="swimlane;fontStyle=0;childLayout=stackLayout;horizontal=1;startSize=30;horizontalStack=0;resizeParent=1;resizeParentMax=0;resizeLast=0;collapsible=1;marginBottom=0;whiteSpace=wrap;html=1;" vertex="1" parent="WIyWlLk6GJQsqaUBKTNV-1">
          <mxGeometry x="1410" y="1169" width="170" height="180" as="geometry" />
        </mxCell>
        <mxCell id="K194ZJ6x8vjtOvq9FhH7-378" value="id:INT &amp;lt;PK&amp;gt;" style="text;strokeColor=none;fillColor=none;align=left;verticalAlign=middle;spacingLeft=4;spacingRight=4;overflow=hidden;points=[[0,0.5],[1,0.5]];portConstraint=eastwest;rotatable=0;whiteSpace=wrap;html=1;" vertex="1" parent="K194ZJ6x8vjtOvq9FhH7-377">
          <mxGeometry y="30" width="170" height="30" as="geometry" />
        </mxCell>
        <mxCell id="K194ZJ6x8vjtOvq9FhH7-379" value="event_id: INT&amp;lt;FK&amp;gt;" style="text;strokeColor=none;fillColor=none;align=left;verticalAlign=middle;spacingLeft=4;spacingRight=4;overflow=hidden;points=[[0,0.5],[1,0.5]];portConstraint=eastwest;rotatable=0;whiteSpace=wrap;html=1;" vertex="1" parent="K194ZJ6x8vjtOvq9FhH7-377">
          <mxGeometry y="60" width="170" height="30" as="geometry" />
        </mxCell>
        <mxCell id="K194ZJ6x8vjtOvq9FhH7-380" value="user_id:INT &amp;lt;FK&amp;gt;" style="text;strokeColor=none;fillColor=none;align=left;verticalAlign=middle;spacingLeft=4;spacingRight=4;overflow=hidden;points=[[0,0.5],[1,0.5]];portConstraint=eastwest;rotatable=0;whiteSpace=wrap;html=1;" vertex="1" parent="K194ZJ6x8vjtOvq9FhH7-377">
          <mxGeometry y="90" width="170" height="30" as="geometry" />
        </mxCell>
        <mxCell id="K194ZJ6x8vjtOvq9FhH7-383" value="org_id:INT &amp;lt;FK&amp;gt;" style="text;strokeColor=none;fillColor=none;align=left;verticalAlign=middle;spacingLeft=4;spacingRight=4;overflow=hidden;points=[[0,0.5],[1,0.5]];portConstraint=eastwest;rotatable=0;whiteSpace=wrap;html=1;" vertex="1" parent="K194ZJ6x8vjtOvq9FhH7-377">
          <mxGeometry y="120" width="170" height="30" as="geometry" />
        </mxCell>
        <mxCell id="K194ZJ6x8vjtOvq9FhH7-384" value="created_at: TIMESTAMP" style="text;strokeColor=none;fillColor=none;align=left;verticalAlign=middle;spacingLeft=4;spacingRight=4;overflow=hidden;points=[[0,0.5],[1,0.5]];portConstraint=eastwest;rotatable=0;whiteSpace=wrap;html=1;" vertex="1" parent="K194ZJ6x8vjtOvq9FhH7-377">
          <mxGeometry y="150" width="170" height="30" as="geometry" />
        </mxCell>
        <mxCell id="K194ZJ6x8vjtOvq9FhH7-389" value="users" style="swimlane;fontStyle=0;childLayout=stackLayout;horizontal=1;startSize=30;horizontalStack=0;resizeParent=1;resizeParentMax=0;resizeLast=0;collapsible=1;marginBottom=0;whiteSpace=wrap;html=1;" vertex="1" parent="WIyWlLk6GJQsqaUBKTNV-1">
          <mxGeometry x="1635" y="680" width="170" height="240" as="geometry" />
        </mxCell>
        <mxCell id="K194ZJ6x8vjtOvq9FhH7-390" value="id:INT &amp;lt;PK&amp;gt;" style="text;strokeColor=none;fillColor=none;align=left;verticalAlign=middle;spacingLeft=4;spacingRight=4;overflow=hidden;points=[[0,0.5],[1,0.5]];portConstraint=eastwest;rotatable=0;whiteSpace=wrap;html=1;" vertex="1" parent="K194ZJ6x8vjtOvq9FhH7-389">
          <mxGeometry y="30" width="170" height="30" as="geometry" />
        </mxCell>
        <mxCell id="K194ZJ6x8vjtOvq9FhH7-391" value="name: VARCHAR(250)" style="text;strokeColor=none;fillColor=none;align=left;verticalAlign=middle;spacingLeft=4;spacingRight=4;overflow=hidden;points=[[0,0.5],[1,0.5]];portConstraint=eastwest;rotatable=0;whiteSpace=wrap;html=1;" vertex="1" parent="K194ZJ6x8vjtOvq9FhH7-389">
          <mxGeometry y="60" width="170" height="30" as="geometry" />
        </mxCell>
        <mxCell id="K194ZJ6x8vjtOvq9FhH7-392" value="user_number: VARCHAR(20)" style="text;strokeColor=none;fillColor=none;align=left;verticalAlign=middle;spacingLeft=4;spacingRight=4;overflow=hidden;points=[[0,0.5],[1,0.5]];portConstraint=eastwest;rotatable=0;whiteSpace=wrap;html=1;" vertex="1" parent="K194ZJ6x8vjtOvq9FhH7-389">
          <mxGeometry y="90" width="170" height="30" as="geometry" />
        </mxCell>
        <mxCell id="K194ZJ6x8vjtOvq9FhH7-393" value="email: VARCHAR(50)" style="text;strokeColor=none;fillColor=none;align=left;verticalAlign=middle;spacingLeft=4;spacingRight=4;overflow=hidden;points=[[0,0.5],[1,0.5]];portConstraint=eastwest;rotatable=0;whiteSpace=wrap;html=1;" vertex="1" parent="K194ZJ6x8vjtOvq9FhH7-389">
          <mxGeometry y="120" width="170" height="30" as="geometry" />
        </mxCell>
        <mxCell id="K194ZJ6x8vjtOvq9FhH7-394" value="password:VARCHAR(250)" style="text;strokeColor=none;fillColor=none;align=left;verticalAlign=middle;spacingLeft=4;spacingRight=4;overflow=hidden;points=[[0,0.5],[1,0.5]];portConstraint=eastwest;rotatable=0;whiteSpace=wrap;html=1;" vertex="1" parent="K194ZJ6x8vjtOvq9FhH7-389">
          <mxGeometry y="150" width="170" height="30" as="geometry" />
        </mxCell>
        <mxCell id="K194ZJ6x8vjtOvq9FhH7-395" value="role: ENUM" style="text;strokeColor=none;fillColor=none;align=left;verticalAlign=middle;spacingLeft=4;spacingRight=4;overflow=hidden;points=[[0,0.5],[1,0.5]];portConstraint=eastwest;rotatable=0;whiteSpace=wrap;html=1;" vertex="1" parent="K194ZJ6x8vjtOvq9FhH7-389">
          <mxGeometry y="180" width="170" height="30" as="geometry" />
        </mxCell>
        <mxCell id="K194ZJ6x8vjtOvq9FhH7-396" value="created_at:TIMESTAMP" style="text;strokeColor=none;fillColor=none;align=left;verticalAlign=middle;spacingLeft=4;spacingRight=4;overflow=hidden;points=[[0,0.5],[1,0.5]];portConstraint=eastwest;rotatable=0;whiteSpace=wrap;html=1;" vertex="1" parent="K194ZJ6x8vjtOvq9FhH7-389">
          <mxGeometry y="210" width="170" height="30" as="geometry" />
        </mxCell>
        <mxCell id="K194ZJ6x8vjtOvq9FhH7-397" value="notifications" style="swimlane;fontStyle=0;childLayout=stackLayout;horizontal=1;startSize=30;horizontalStack=0;resizeParent=1;resizeParentMax=0;resizeLast=0;collapsible=1;marginBottom=0;whiteSpace=wrap;html=1;" vertex="1" parent="WIyWlLk6GJQsqaUBKTNV-1">
          <mxGeometry x="1620" y="1169" width="200" height="270" as="geometry" />
        </mxCell>
        <mxCell id="K194ZJ6x8vjtOvq9FhH7-398" value="id:INT &amp;lt;PK&amp;gt;" style="text;strokeColor=none;fillColor=none;align=left;verticalAlign=middle;spacingLeft=4;spacingRight=4;overflow=hidden;points=[[0,0.5],[1,0.5]];portConstraint=eastwest;rotatable=0;whiteSpace=wrap;html=1;" vertex="1" parent="K194ZJ6x8vjtOvq9FhH7-397">
          <mxGeometry y="30" width="200" height="30" as="geometry" />
        </mxCell>
        <mxCell id="K194ZJ6x8vjtOvq9FhH7-399" value="from_user_id: INT &amp;lt;FK&amp;gt;" style="text;strokeColor=none;fillColor=none;align=left;verticalAlign=middle;spacingLeft=4;spacingRight=4;overflow=hidden;points=[[0,0.5],[1,0.5]];portConstraint=eastwest;rotatable=0;whiteSpace=wrap;html=1;" vertex="1" parent="K194ZJ6x8vjtOvq9FhH7-397">
          <mxGeometry y="60" width="200" height="30" as="geometry" />
        </mxCell>
        <mxCell id="K194ZJ6x8vjtOvq9FhH7-400" value="to_user_id&amp;lt;FK&amp;gt;" style="text;strokeColor=none;fillColor=none;align=left;verticalAlign=middle;spacingLeft=4;spacingRight=4;overflow=hidden;points=[[0,0.5],[1,0.5]];portConstraint=eastwest;rotatable=0;whiteSpace=wrap;html=1;" vertex="1" parent="K194ZJ6x8vjtOvq9FhH7-397">
          <mxGeometry y="90" width="200" height="30" as="geometry" />
        </mxCell>
        <mxCell id="K194ZJ6x8vjtOvq9FhH7-401" value="entity_id:INT" style="text;strokeColor=none;fillColor=none;align=left;verticalAlign=middle;spacingLeft=4;spacingRight=4;overflow=hidden;points=[[0,0.5],[1,0.5]];portConstraint=eastwest;rotatable=0;whiteSpace=wrap;html=1;" vertex="1" parent="K194ZJ6x8vjtOvq9FhH7-397">
          <mxGeometry y="120" width="200" height="30" as="geometry" />
        </mxCell>
        <mxCell id="K194ZJ6x8vjtOvq9FhH7-402" value="entity_type:VARCHAR(50)" style="text;strokeColor=none;fillColor=none;align=left;verticalAlign=middle;spacingLeft=4;spacingRight=4;overflow=hidden;points=[[0,0.5],[1,0.5]];portConstraint=eastwest;rotatable=0;whiteSpace=wrap;html=1;" vertex="1" parent="K194ZJ6x8vjtOvq9FhH7-397">
          <mxGeometry y="150" width="200" height="30" as="geometry" />
        </mxCell>
        <mxCell id="K194ZJ6x8vjtOvq9FhH7-403" value="notification_type: VARCHAR(100)" style="text;strokeColor=none;fillColor=none;align=left;verticalAlign=middle;spacingLeft=4;spacingRight=4;overflow=hidden;points=[[0,0.5],[1,0.5]];portConstraint=eastwest;rotatable=0;whiteSpace=wrap;html=1;" vertex="1" parent="K194ZJ6x8vjtOvq9FhH7-397">
          <mxGeometry y="180" width="200" height="30" as="geometry" />
        </mxCell>
        <mxCell id="K194ZJ6x8vjtOvq9FhH7-404" value="message: TEXT" style="text;strokeColor=none;fillColor=none;align=left;verticalAlign=middle;spacingLeft=4;spacingRight=4;overflow=hidden;points=[[0,0.5],[1,0.5]];portConstraint=eastwest;rotatable=0;whiteSpace=wrap;html=1;" vertex="1" parent="K194ZJ6x8vjtOvq9FhH7-397">
          <mxGeometry y="210" width="200" height="30" as="geometry" />
        </mxCell>
        <mxCell id="K194ZJ6x8vjtOvq9FhH7-405" value="created_at:TIMESTAMP" style="text;strokeColor=none;fillColor=none;align=left;verticalAlign=middle;spacingLeft=4;spacingRight=4;overflow=hidden;points=[[0,0.5],[1,0.5]];portConstraint=eastwest;rotatable=0;whiteSpace=wrap;html=1;" vertex="1" parent="K194ZJ6x8vjtOvq9FhH7-397">
          <mxGeometry y="240" width="200" height="30" as="geometry" />
        </mxCell>
        <mxCell id="K194ZJ6x8vjtOvq9FhH7-406" value="comments" style="swimlane;fontStyle=0;childLayout=stackLayout;horizontal=1;startSize=30;horizontalStack=0;resizeParent=1;resizeParentMax=0;resizeLast=0;collapsible=1;marginBottom=0;whiteSpace=wrap;html=1;" vertex="1" parent="WIyWlLk6GJQsqaUBKTNV-1">
          <mxGeometry x="1940" y="980" width="200" height="180" as="geometry" />
        </mxCell>
        <mxCell id="K194ZJ6x8vjtOvq9FhH7-407" value="comment_id: INT &amp;lt;PK&amp;gt;" style="text;strokeColor=none;fillColor=none;align=left;verticalAlign=middle;spacingLeft=4;spacingRight=4;overflow=hidden;points=[[0,0.5],[1,0.5]];portConstraint=eastwest;rotatable=0;whiteSpace=wrap;html=1;" vertex="1" parent="K194ZJ6x8vjtOvq9FhH7-406">
          <mxGeometry y="30" width="200" height="30" as="geometry" />
        </mxCell>
        <mxCell id="K194ZJ6x8vjtOvq9FhH7-408" value="entity_id:INT" style="text;strokeColor=none;fillColor=none;align=left;verticalAlign=middle;spacingLeft=4;spacingRight=4;overflow=hidden;points=[[0,0.5],[1,0.5]];portConstraint=eastwest;rotatable=0;whiteSpace=wrap;html=1;" vertex="1" parent="K194ZJ6x8vjtOvq9FhH7-406">
          <mxGeometry y="60" width="200" height="30" as="geometry" />
        </mxCell>
        <mxCell id="K194ZJ6x8vjtOvq9FhH7-409" value="user_id: INT &amp;lt;FX&amp;gt;" style="text;strokeColor=none;fillColor=none;align=left;verticalAlign=middle;spacingLeft=4;spacingRight=4;overflow=hidden;points=[[0,0.5],[1,0.5]];portConstraint=eastwest;rotatable=0;whiteSpace=wrap;html=1;" vertex="1" parent="K194ZJ6x8vjtOvq9FhH7-406">
          <mxGeometry y="90" width="200" height="30" as="geometry" />
        </mxCell>
        <mxCell id="K194ZJ6x8vjtOvq9FhH7-410" value="comment:TEXT" style="text;strokeColor=none;fillColor=none;align=left;verticalAlign=middle;spacingLeft=4;spacingRight=4;overflow=hidden;points=[[0,0.5],[1,0.5]];portConstraint=eastwest;rotatable=0;whiteSpace=wrap;html=1;" vertex="1" parent="K194ZJ6x8vjtOvq9FhH7-406">
          <mxGeometry y="120" width="200" height="30" as="geometry" />
        </mxCell>
        <mxCell id="K194ZJ6x8vjtOvq9FhH7-411" value="created_at:TIMESTAMP" style="text;strokeColor=none;fillColor=none;align=left;verticalAlign=middle;spacingLeft=4;spacingRight=4;overflow=hidden;points=[[0,0.5],[1,0.5]];portConstraint=eastwest;rotatable=0;whiteSpace=wrap;html=1;" vertex="1" parent="K194ZJ6x8vjtOvq9FhH7-406">
          <mxGeometry y="150" width="200" height="30" as="geometry" />
        </mxCell>
        <mxCell id="K194ZJ6x8vjtOvq9FhH7-423" value="scholarship" style="swimlane;fontStyle=0;childLayout=stackLayout;horizontal=1;startSize=30;horizontalStack=0;resizeParent=1;resizeParentMax=0;resizeLast=0;collapsible=1;marginBottom=0;whiteSpace=wrap;html=1;" vertex="1" parent="WIyWlLk6GJQsqaUBKTNV-1">
          <mxGeometry x="1560" y="-55" width="210" height="180" as="geometry" />
        </mxCell>
        <mxCell id="K194ZJ6x8vjtOvq9FhH7-424" value="id:INT&amp;lt;PK&amp;gt;" style="text;strokeColor=none;fillColor=none;align=left;verticalAlign=middle;spacingLeft=4;spacingRight=4;overflow=hidden;points=[[0,0.5],[1,0.5]];portConstraint=eastwest;rotatable=0;whiteSpace=wrap;html=1;" vertex="1" parent="K194ZJ6x8vjtOvq9FhH7-423">
          <mxGeometry y="30" width="210" height="30" as="geometry" />
        </mxCell>
        <mxCell id="K194ZJ6x8vjtOvq9FhH7-425" value="title:VARCHAR(255)" style="text;strokeColor=none;fillColor=none;align=left;verticalAlign=middle;spacingLeft=4;spacingRight=4;overflow=hidden;points=[[0,0.5],[1,0.5]];portConstraint=eastwest;rotatable=0;whiteSpace=wrap;html=1;" vertex="1" parent="K194ZJ6x8vjtOvq9FhH7-423">
          <mxGeometry y="60" width="210" height="30" as="geometry" />
        </mxCell>
        <mxCell id="K194ZJ6x8vjtOvq9FhH7-426" value="desc:TEXT" style="text;strokeColor=none;fillColor=none;align=left;verticalAlign=middle;spacingLeft=4;spacingRight=4;overflow=hidden;points=[[0,0.5],[1,0.5]];portConstraint=eastwest;rotatable=0;whiteSpace=wrap;html=1;" vertex="1" parent="K194ZJ6x8vjtOvq9FhH7-423">
          <mxGeometry y="90" width="210" height="30" as="geometry" />
        </mxCell>
        <mxCell id="K194ZJ6x8vjtOvq9FhH7-427" value="status:VARCHAR(50)" style="text;strokeColor=none;fillColor=none;align=left;verticalAlign=middle;spacingLeft=4;spacingRight=4;overflow=hidden;points=[[0,0.5],[1,0.5]];portConstraint=eastwest;rotatable=0;whiteSpace=wrap;html=1;" vertex="1" parent="K194ZJ6x8vjtOvq9FhH7-423">
          <mxGeometry y="120" width="210" height="30" as="geometry" />
        </mxCell>
        <mxCell id="K194ZJ6x8vjtOvq9FhH7-433" value="application_form:LONGBLOB" style="text;strokeColor=none;fillColor=none;align=left;verticalAlign=middle;spacingLeft=4;spacingRight=4;overflow=hidden;points=[[0,0.5],[1,0.5]];portConstraint=eastwest;rotatable=0;whiteSpace=wrap;html=1;" vertex="1" parent="K194ZJ6x8vjtOvq9FhH7-423">
          <mxGeometry y="150" width="210" height="30" as="geometry" />
        </mxCell>
        <mxCell id="K194ZJ6x8vjtOvq9FhH7-428" value="room" style="swimlane;fontStyle=0;childLayout=stackLayout;horizontal=1;startSize=30;horizontalStack=0;resizeParent=1;resizeParentMax=0;resizeLast=0;collapsible=1;marginBottom=0;whiteSpace=wrap;html=1;" vertex="1" parent="WIyWlLk6GJQsqaUBKTNV-1">
          <mxGeometry x="2095.5" y="-55" width="210" height="150" as="geometry" />
        </mxCell>
        <mxCell id="K194ZJ6x8vjtOvq9FhH7-429" value="room_no:INT&amp;lt;PK&amp;gt;&lt;span style=&quot;white-space: pre;&quot;&gt;&#x9;&lt;/span&gt;" style="text;strokeColor=none;fillColor=none;align=left;verticalAlign=middle;spacingLeft=4;spacingRight=4;overflow=hidden;points=[[0,0.5],[1,0.5]];portConstraint=eastwest;rotatable=0;whiteSpace=wrap;html=1;" vertex="1" parent="K194ZJ6x8vjtOvq9FhH7-428">
          <mxGeometry y="30" width="210" height="30" as="geometry" />
        </mxCell>
        <mxCell id="K194ZJ6x8vjtOvq9FhH7-430" value="room_description:" style="text;strokeColor=none;fillColor=none;align=left;verticalAlign=middle;spacingLeft=4;spacingRight=4;overflow=hidden;points=[[0,0.5],[1,0.5]];portConstraint=eastwest;rotatable=0;whiteSpace=wrap;html=1;" vertex="1" parent="K194ZJ6x8vjtOvq9FhH7-428">
          <mxGeometry y="60" width="210" height="30" as="geometry" />
        </mxCell>
        <mxCell id="K194ZJ6x8vjtOvq9FhH7-431" value="created_at:TIMESTAMP" style="text;strokeColor=none;fillColor=none;align=left;verticalAlign=middle;spacingLeft=4;spacingRight=4;overflow=hidden;points=[[0,0.5],[1,0.5]];portConstraint=eastwest;rotatable=0;whiteSpace=wrap;html=1;" vertex="1" parent="K194ZJ6x8vjtOvq9FhH7-428">
          <mxGeometry y="90" width="210" height="30" as="geometry" />
        </mxCell>
        <mxCell id="K194ZJ6x8vjtOvq9FhH7-432" value="updated_at:TIMESTAMP" style="text;strokeColor=none;fillColor=none;align=left;verticalAlign=middle;spacingLeft=4;spacingRight=4;overflow=hidden;points=[[0,0.5],[1,0.5]];portConstraint=eastwest;rotatable=0;whiteSpace=wrap;html=1;" vertex="1" parent="K194ZJ6x8vjtOvq9FhH7-428">
          <mxGeometry y="120" width="210" height="30" as="geometry" />
        </mxCell>
        <mxCell id="K194ZJ6x8vjtOvq9FhH7-434" value="ched_tdp" style="swimlane;fontStyle=0;childLayout=stackLayout;horizontal=1;startSize=30;horizontalStack=0;resizeParent=1;resizeParentMax=0;resizeLast=0;collapsible=1;marginBottom=0;whiteSpace=wrap;html=1;" vertex="1" parent="WIyWlLk6GJQsqaUBKTNV-1">
          <mxGeometry x="1440" y="340" width="210" height="180" as="geometry" />
        </mxCell>
        <mxCell id="K194ZJ6x8vjtOvq9FhH7-435" value="id:INT&amp;lt;PK&amp;gt;" style="text;strokeColor=none;fillColor=none;align=left;verticalAlign=middle;spacingLeft=4;spacingRight=4;overflow=hidden;points=[[0,0.5],[1,0.5]];portConstraint=eastwest;rotatable=0;whiteSpace=wrap;html=1;" vertex="1" parent="K194ZJ6x8vjtOvq9FhH7-434">
          <mxGeometry y="30" width="210" height="30" as="geometry" />
        </mxCell>
        <mxCell id="K194ZJ6x8vjtOvq9FhH7-436" value="student_number:VARCHAR(250)" style="text;strokeColor=none;fillColor=none;align=left;verticalAlign=middle;spacingLeft=4;spacingRight=4;overflow=hidden;points=[[0,0.5],[1,0.5]];portConstraint=eastwest;rotatable=0;whiteSpace=wrap;html=1;" vertex="1" parent="K194ZJ6x8vjtOvq9FhH7-434">
          <mxGeometry y="60" width="210" height="30" as="geometry" />
        </mxCell>
        <mxCell id="K194ZJ6x8vjtOvq9FhH7-437" value="college:INT&amp;lt;FK&amp;gt;" style="text;strokeColor=none;fillColor=none;align=left;verticalAlign=middle;spacingLeft=4;spacingRight=4;overflow=hidden;points=[[0,0.5],[1,0.5]];portConstraint=eastwest;rotatable=0;whiteSpace=wrap;html=1;" vertex="1" parent="K194ZJ6x8vjtOvq9FhH7-434">
          <mxGeometry y="90" width="210" height="30" as="geometry" />
        </mxCell>
        <mxCell id="K194ZJ6x8vjtOvq9FhH7-438" value="program:INT&amp;lt;FK&amp;gt;" style="text;strokeColor=none;fillColor=none;align=left;verticalAlign=middle;spacingLeft=4;spacingRight=4;overflow=hidden;points=[[0,0.5],[1,0.5]];portConstraint=eastwest;rotatable=0;whiteSpace=wrap;html=1;" vertex="1" parent="K194ZJ6x8vjtOvq9FhH7-434">
          <mxGeometry y="120" width="210" height="30" as="geometry" />
        </mxCell>
        <mxCell id="K194ZJ6x8vjtOvq9FhH7-439" value="scholarship_id:INT&amp;lt;FK&amp;gt;" style="text;strokeColor=none;fillColor=none;align=left;verticalAlign=middle;spacingLeft=4;spacingRight=4;overflow=hidden;points=[[0,0.5],[1,0.5]];portConstraint=eastwest;rotatable=0;whiteSpace=wrap;html=1;" vertex="1" parent="K194ZJ6x8vjtOvq9FhH7-434">
          <mxGeometry y="150" width="210" height="30" as="geometry" />
        </mxCell>
        <mxCell id="K194ZJ6x8vjtOvq9FhH7-448" value="sui_generis" style="swimlane;fontStyle=0;childLayout=stackLayout;horizontal=1;startSize=30;horizontalStack=0;resizeParent=1;resizeParentMax=0;resizeLast=0;collapsible=1;marginBottom=0;whiteSpace=wrap;html=1;" vertex="1" parent="WIyWlLk6GJQsqaUBKTNV-1">
          <mxGeometry x="1820" y="340" width="210" height="150" as="geometry" />
        </mxCell>
        <mxCell id="K194ZJ6x8vjtOvq9FhH7-449" value="id:INT&amp;lt;PK&amp;gt;" style="text;strokeColor=none;fillColor=none;align=left;verticalAlign=middle;spacingLeft=4;spacingRight=4;overflow=hidden;points=[[0,0.5],[1,0.5]];portConstraint=eastwest;rotatable=0;whiteSpace=wrap;html=1;" vertex="1" parent="K194ZJ6x8vjtOvq9FhH7-448">
          <mxGeometry y="30" width="210" height="30" as="geometry" />
        </mxCell>
        <mxCell id="K194ZJ6x8vjtOvq9FhH7-450" value="studentId:INT&amp;lt;FK&amp;gt;" style="text;strokeColor=none;fillColor=none;align=left;verticalAlign=middle;spacingLeft=4;spacingRight=4;overflow=hidden;points=[[0,0.5],[1,0.5]];portConstraint=eastwest;rotatable=0;whiteSpace=wrap;html=1;" vertex="1" parent="K194ZJ6x8vjtOvq9FhH7-448">
          <mxGeometry y="60" width="210" height="30" as="geometry" />
        </mxCell>
        <mxCell id="K194ZJ6x8vjtOvq9FhH7-451" value="scholarship_id:INT &amp;lt;FK&amp;gt;" style="text;strokeColor=none;fillColor=none;align=left;verticalAlign=middle;spacingLeft=4;spacingRight=4;overflow=hidden;points=[[0,0.5],[1,0.5]];portConstraint=eastwest;rotatable=0;whiteSpace=wrap;html=1;" vertex="1" parent="K194ZJ6x8vjtOvq9FhH7-448">
          <mxGeometry y="90" width="210" height="30" as="geometry" />
        </mxCell>
        <mxCell id="K194ZJ6x8vjtOvq9FhH7-452" value="status:VARCHAR(50)" style="text;strokeColor=none;fillColor=none;align=left;verticalAlign=middle;spacingLeft=4;spacingRight=4;overflow=hidden;points=[[0,0.5],[1,0.5]];portConstraint=eastwest;rotatable=0;whiteSpace=wrap;html=1;" vertex="1" parent="K194ZJ6x8vjtOvq9FhH7-448">
          <mxGeometry y="120" width="210" height="30" as="geometry" />
        </mxCell>
        <mxCell id="K194ZJ6x8vjtOvq9FhH7-488" value="chat" style="swimlane;fontStyle=0;childLayout=stackLayout;horizontal=1;startSize=30;horizontalStack=0;resizeParent=1;resizeParentMax=0;resizeLast=0;collapsible=1;marginBottom=0;whiteSpace=wrap;html=1;" vertex="1" parent="WIyWlLk6GJQsqaUBKTNV-1">
          <mxGeometry x="2510" y="720" width="210" height="120" as="geometry" />
        </mxCell>
        <mxCell id="K194ZJ6x8vjtOvq9FhH7-489" value="id:INT&amp;lt;PK&amp;gt;" style="text;strokeColor=none;fillColor=none;align=left;verticalAlign=middle;spacingLeft=4;spacingRight=4;overflow=hidden;points=[[0,0.5],[1,0.5]];portConstraint=eastwest;rotatable=0;whiteSpace=wrap;html=1;" vertex="1" parent="K194ZJ6x8vjtOvq9FhH7-488">
          <mxGeometry y="30" width="210" height="30" as="geometry" />
        </mxCell>
        <mxCell id="K194ZJ6x8vjtOvq9FhH7-490" value="created_at: TIMESTAMP" style="text;strokeColor=none;fillColor=none;align=left;verticalAlign=middle;spacingLeft=4;spacingRight=4;overflow=hidden;points=[[0,0.5],[1,0.5]];portConstraint=eastwest;rotatable=0;whiteSpace=wrap;html=1;" vertex="1" parent="K194ZJ6x8vjtOvq9FhH7-488">
          <mxGeometry y="60" width="210" height="30" as="geometry" />
        </mxCell>
        <mxCell id="K194ZJ6x8vjtOvq9FhH7-491" value="updated_at:TIMESTAMP" style="text;strokeColor=none;fillColor=none;align=left;verticalAlign=middle;spacingLeft=4;spacingRight=4;overflow=hidden;points=[[0,0.5],[1,0.5]];portConstraint=eastwest;rotatable=0;whiteSpace=wrap;html=1;" vertex="1" parent="K194ZJ6x8vjtOvq9FhH7-488">
          <mxGeometry y="90" width="210" height="30" as="geometry" />
        </mxCell>
        <mxCell id="K194ZJ6x8vjtOvq9FhH7-494" value="messages" style="swimlane;fontStyle=0;childLayout=stackLayout;horizontal=1;startSize=30;horizontalStack=0;resizeParent=1;resizeParentMax=0;resizeLast=0;collapsible=1;marginBottom=0;whiteSpace=wrap;html=1;" vertex="1" parent="WIyWlLk6GJQsqaUBKTNV-1">
          <mxGeometry x="2810" y="735" width="210" height="120" as="geometry" />
        </mxCell>
        <mxCell id="K194ZJ6x8vjtOvq9FhH7-495" value="id:INT&amp;lt;PK&amp;gt;" style="text;strokeColor=none;fillColor=none;align=left;verticalAlign=middle;spacingLeft=4;spacingRight=4;overflow=hidden;points=[[0,0.5],[1,0.5]];portConstraint=eastwest;rotatable=0;whiteSpace=wrap;html=1;" vertex="1" parent="K194ZJ6x8vjtOvq9FhH7-494">
          <mxGeometry y="30" width="210" height="30" as="geometry" />
        </mxCell>
        <mxCell id="K194ZJ6x8vjtOvq9FhH7-496" value="created_at: TIMESTAMP" style="text;strokeColor=none;fillColor=none;align=left;verticalAlign=middle;spacingLeft=4;spacingRight=4;overflow=hidden;points=[[0,0.5],[1,0.5]];portConstraint=eastwest;rotatable=0;whiteSpace=wrap;html=1;" vertex="1" parent="K194ZJ6x8vjtOvq9FhH7-494">
          <mxGeometry y="60" width="210" height="30" as="geometry" />
        </mxCell>
        <mxCell id="K194ZJ6x8vjtOvq9FhH7-497" value="updated_at:TIMESTAMP" style="text;strokeColor=none;fillColor=none;align=left;verticalAlign=middle;spacingLeft=4;spacingRight=4;overflow=hidden;points=[[0,0.5],[1,0.5]];portConstraint=eastwest;rotatable=0;whiteSpace=wrap;html=1;" vertex="1" parent="K194ZJ6x8vjtOvq9FhH7-494">
          <mxGeometry y="90" width="210" height="30" as="geometry" />
        </mxCell>
        <mxCell id="K194ZJ6x8vjtOvq9FhH7-499" value="User" style="swimlane;fontStyle=0;childLayout=stackLayout;horizontal=1;startSize=30;horizontalStack=0;resizeParent=1;resizeParentMax=0;resizeLast=0;collapsible=1;marginBottom=0;whiteSpace=wrap;html=1;" vertex="1" parent="WIyWlLk6GJQsqaUBKTNV-1">
          <mxGeometry x="2810" y="880" width="210" height="120" as="geometry" />
        </mxCell>
        <mxCell id="K194ZJ6x8vjtOvq9FhH7-500" value="id:INT&amp;lt;PK&amp;gt;" style="text;strokeColor=none;fillColor=none;align=left;verticalAlign=middle;spacingLeft=4;spacingRight=4;overflow=hidden;points=[[0,0.5],[1,0.5]];portConstraint=eastwest;rotatable=0;whiteSpace=wrap;html=1;" vertex="1" parent="K194ZJ6x8vjtOvq9FhH7-499">
          <mxGeometry y="30" width="210" height="30" as="geometry" />
        </mxCell>
        <mxCell id="K194ZJ6x8vjtOvq9FhH7-510" value="" style="edgeStyle=entityRelationEdgeStyle;fontSize=12;html=1;endArrow=ERzeroToMany;startArrow=ERmandOne;rounded=0;exitX=0.998;exitY=0.21;exitDx=0;exitDy=0;exitPerimeter=0;entryX=0;entryY=0.167;entryDx=0;entryDy=0;entryPerimeter=0;" edge="1" parent="K194ZJ6x8vjtOvq9FhH7-499" source="K194ZJ6x8vjtOvq9FhH7-488">
          <mxGeometry width="100" height="100" relative="1" as="geometry">
            <mxPoint x="-60" y="-220.00000000000045" as="sourcePoint" />
            <mxPoint x="11.050000000000182" y="46" as="targetPoint" />
            <Array as="points">
              <mxPoint x="-104.78999999999996" y="223.79999999999995" />
            </Array>
          </mxGeometry>
        </mxCell>
        <mxCell id="K194ZJ6x8vjtOvq9FhH7-501" value="created_at: TIMESTAMP" style="text;strokeColor=none;fillColor=none;align=left;verticalAlign=middle;spacingLeft=4;spacingRight=4;overflow=hidden;points=[[0,0.5],[1,0.5]];portConstraint=eastwest;rotatable=0;whiteSpace=wrap;html=1;" vertex="1" parent="K194ZJ6x8vjtOvq9FhH7-499">
          <mxGeometry y="60" width="210" height="30" as="geometry" />
        </mxCell>
        <mxCell id="K194ZJ6x8vjtOvq9FhH7-502" value="updated_at:TIMESTAMP" style="text;strokeColor=none;fillColor=none;align=left;verticalAlign=middle;spacingLeft=4;spacingRight=4;overflow=hidden;points=[[0,0.5],[1,0.5]];portConstraint=eastwest;rotatable=0;whiteSpace=wrap;html=1;" vertex="1" parent="K194ZJ6x8vjtOvq9FhH7-499">
          <mxGeometry y="90" width="210" height="30" as="geometry" />
        </mxCell>
        <mxCell id="K194ZJ6x8vjtOvq9FhH7-504" value="belongs" style="text;html=1;align=center;verticalAlign=middle;whiteSpace=wrap;rounded=0;" vertex="1" parent="WIyWlLk6GJQsqaUBKTNV-1">
          <mxGeometry x="2730" y="860" width="60" height="30" as="geometry" />
        </mxCell>
        <mxCell id="K194ZJ6x8vjtOvq9FhH7-508" value="" style="edgeStyle=entityRelationEdgeStyle;fontSize=12;html=1;endArrow=ERzeroToMany;startArrow=ERmandOne;rounded=0;exitX=1.001;exitY=0.141;exitDx=0;exitDy=0;exitPerimeter=0;entryX=-0.011;entryY=0.119;entryDx=0;entryDy=0;entryPerimeter=0;" edge="1" parent="WIyWlLk6GJQsqaUBKTNV-1" source="K194ZJ6x8vjtOvq9FhH7-488" target="K194ZJ6x8vjtOvq9FhH7-494">
          <mxGeometry width="100" height="100" relative="1" as="geometry">
            <mxPoint x="2743.5699999999997" y="729.9999999999999" as="sourcePoint" />
            <mxPoint x="2800" y="859.44" as="targetPoint" />
            <Array as="points">
              <mxPoint x="2684.16" y="1037.1999999999998" />
            </Array>
          </mxGeometry>
        </mxCell>
        <mxCell id="K194ZJ6x8vjtOvq9FhH7-511" value="" style="edgeStyle=entityRelationEdgeStyle;fontSize=12;html=1;endArrow=ERzeroToMany;startArrow=ERmandOne;rounded=0;exitX=0;exitY=0.5;exitDx=0;exitDy=0;entryX=1.006;entryY=0.062;entryDx=0;entryDy=0;entryPerimeter=0;" edge="1" parent="WIyWlLk6GJQsqaUBKTNV-1" source="K194ZJ6x8vjtOvq9FhH7-255" target="K194ZJ6x8vjtOvq9FhH7-271">
          <mxGeometry width="100" height="100" relative="1" as="geometry">
            <mxPoint x="810" y="300" as="sourcePoint" />
            <mxPoint x="150" y="280" as="targetPoint" />
          </mxGeometry>
        </mxCell>
        <mxCell id="K194ZJ6x8vjtOvq9FhH7-513" value="" style="edgeStyle=entityRelationEdgeStyle;fontSize=12;html=1;endArrow=ERzeroToMany;startArrow=ERmandOne;rounded=0;exitX=0.25;exitY=1;exitDx=0;exitDy=0;entryX=0.75;entryY=0;entryDx=0;entryDy=0;" edge="1" parent="WIyWlLk6GJQsqaUBKTNV-1" source="K194ZJ6x8vjtOvq9FhH7-255" target="K194ZJ6x8vjtOvq9FhH7-189">
          <mxGeometry width="100" height="100" relative="1" as="geometry">
            <mxPoint x="670" y="190" as="sourcePoint" />
            <mxPoint x="575" y="415" as="targetPoint" />
            <Array as="points">
              <mxPoint x="482.8" y="45.5" />
            </Array>
          </mxGeometry>
        </mxCell>
        <mxCell id="K194ZJ6x8vjtOvq9FhH7-515" value="has" style="edgeLabel;html=1;align=center;verticalAlign=middle;resizable=0;points=[];" vertex="1" connectable="0" parent="K194ZJ6x8vjtOvq9FhH7-513">
          <mxGeometry x="0.0088" y="-2" relative="1" as="geometry">
            <mxPoint as="offset" />
          </mxGeometry>
        </mxCell>
        <mxCell id="K194ZJ6x8vjtOvq9FhH7-516" value="" style="edgeStyle=entityRelationEdgeStyle;fontSize=12;html=1;endArrow=ERzeroToMany;startArrow=ERmandOne;rounded=0;exitX=0.435;exitY=1.121;exitDx=0;exitDy=0;entryX=1.002;entryY=0.05;entryDx=0;entryDy=0;entryPerimeter=0;exitPerimeter=0;" edge="1" parent="WIyWlLk6GJQsqaUBKTNV-1" source="K194ZJ6x8vjtOvq9FhH7-197" target="K194ZJ6x8vjtOvq9FhH7-198">
          <mxGeometry width="100" height="100" relative="1" as="geometry">
            <mxPoint x="300" y="1050" as="sourcePoint" />
            <mxPoint x="357.2999999999997" y="1243.92" as="targetPoint" />
            <Array as="points">
              <mxPoint x="-177.72000000000003" y="1056.3400000000001" />
              <mxPoint x="235" y="895" />
              <mxPoint x="-347.72" y="1146.3400000000001" />
            </Array>
          </mxGeometry>
        </mxCell>
        <mxCell id="K194ZJ6x8vjtOvq9FhH7-518" value="" style="edgeStyle=entityRelationEdgeStyle;fontSize=12;html=1;endArrow=ERzeroToMany;startArrow=ERmandOne;rounded=0;exitX=0.75;exitY=1;exitDx=0;exitDy=0;entryX=0;entryY=0;entryDx=0;entryDy=0;" edge="1" parent="WIyWlLk6GJQsqaUBKTNV-1" source="K194ZJ6x8vjtOvq9FhH7-255" target="K194ZJ6x8vjtOvq9FhH7-434">
          <mxGeometry width="100" height="100" relative="1" as="geometry">
            <mxPoint x="861.04" y="220" as="sourcePoint" />
            <mxPoint x="1710.0000000000005" y="380.3600000000001" as="targetPoint" />
          </mxGeometry>
        </mxCell>
        <mxCell id="K194ZJ6x8vjtOvq9FhH7-519" value="include" style="edgeLabel;html=1;align=center;verticalAlign=middle;resizable=0;points=[];" vertex="1" connectable="0" parent="K194ZJ6x8vjtOvq9FhH7-518">
          <mxGeometry x="-0.0176" y="-2" relative="1" as="geometry">
            <mxPoint as="offset" />
          </mxGeometry>
        </mxCell>
        <mxCell id="K194ZJ6x8vjtOvq9FhH7-521" value="" style="edgeStyle=entityRelationEdgeStyle;fontSize=12;html=1;endArrow=ERzeroToMany;startArrow=ERmandOne;rounded=0;exitX=1;exitY=0;exitDx=0;exitDy=0;entryX=-0.005;entryY=0.083;entryDx=0;entryDy=0;entryPerimeter=0;" edge="1" parent="WIyWlLk6GJQsqaUBKTNV-1" source="K194ZJ6x8vjtOvq9FhH7-255" target="K194ZJ6x8vjtOvq9FhH7-225">
          <mxGeometry width="100" height="100" relative="1" as="geometry">
            <mxPoint x="1266" y="-55" as="sourcePoint" />
            <mxPoint x="797" y="94" as="targetPoint" />
          </mxGeometry>
        </mxCell>
        <mxCell id="K194ZJ6x8vjtOvq9FhH7-522" value="offers" style="edgeLabel;html=1;align=center;verticalAlign=middle;resizable=0;points=[];" vertex="1" connectable="0" parent="K194ZJ6x8vjtOvq9FhH7-521">
          <mxGeometry x="-0.0099" y="1" relative="1" as="geometry">
            <mxPoint as="offset" />
          </mxGeometry>
        </mxCell>
        <mxCell id="K194ZJ6x8vjtOvq9FhH7-523" value="" style="edgeStyle=entityRelationEdgeStyle;fontSize=12;html=1;endArrow=ERzeroToMany;startArrow=ERmandOne;rounded=0;exitX=0.5;exitY=1;exitDx=0;exitDy=0;entryX=0;entryY=0.5;entryDx=0;entryDy=0;" edge="1" parent="WIyWlLk6GJQsqaUBKTNV-1" source="K194ZJ6x8vjtOvq9FhH7-255" target="K194ZJ6x8vjtOvq9FhH7-231">
          <mxGeometry width="100" height="100" relative="1" as="geometry">
            <mxPoint x="840" y="270" as="sourcePoint" />
            <mxPoint x="1110" y="450" as="targetPoint" />
          </mxGeometry>
        </mxCell>
        <mxCell id="K194ZJ6x8vjtOvq9FhH7-527" value="has" style="edgeLabel;html=1;align=center;verticalAlign=middle;resizable=0;points=[];" vertex="1" connectable="0" parent="K194ZJ6x8vjtOvq9FhH7-523">
          <mxGeometry x="-0.155" y="1" relative="1" as="geometry">
            <mxPoint as="offset" />
          </mxGeometry>
        </mxCell>
        <mxCell id="K194ZJ6x8vjtOvq9FhH7-529" value="" style="edgeStyle=entityRelationEdgeStyle;fontSize=12;html=1;endArrow=ERzeroToMany;startArrow=ERmandOne;rounded=0;exitX=1.009;exitY=-0.07;exitDx=0;exitDy=0;exitPerimeter=0;" edge="1" parent="WIyWlLk6GJQsqaUBKTNV-1" source="K194ZJ6x8vjtOvq9FhH7-203" target="K194ZJ6x8vjtOvq9FhH7-216">
          <mxGeometry width="100" height="100" relative="1" as="geometry">
            <mxPoint x="60" y="1470" as="sourcePoint" />
            <mxPoint x="-40" y="1628" as="targetPoint" />
            <Array as="points">
              <mxPoint x="-552.72" y="1512.3400000000001" />
              <mxPoint x="-140" y="1351" />
              <mxPoint x="-722.72" y="1602.3400000000001" />
            </Array>
          </mxGeometry>
        </mxCell>
        <mxCell id="K194ZJ6x8vjtOvq9FhH7-533" value="" style="edgeStyle=entityRelationEdgeStyle;fontSize=12;html=1;endArrow=ERzeroToMany;startArrow=ERmandOne;rounded=0;exitX=0.494;exitY=1.017;exitDx=0;exitDy=0;exitPerimeter=0;" edge="1" parent="WIyWlLk6GJQsqaUBKTNV-1" source="K194ZJ6x8vjtOvq9FhH7-318" target="K194ZJ6x8vjtOvq9FhH7-340">
          <mxGeometry width="100" height="100" relative="1" as="geometry">
            <mxPoint x="750" y="828" as="sourcePoint" />
            <mxPoint x="648" y="1200" as="targetPoint" />
            <Array as="points">
              <mxPoint x="117.27999999999997" y="1022.3400000000001" />
              <mxPoint x="530" y="861" />
              <mxPoint x="-52.72000000000003" y="1112.3400000000001" />
            </Array>
          </mxGeometry>
        </mxCell>
        <mxCell id="K194ZJ6x8vjtOvq9FhH7-532" value="" style="edgeStyle=entityRelationEdgeStyle;fontSize=12;html=1;endArrow=ERzeroToMany;startArrow=ERmandOne;rounded=0;exitX=0.249;exitY=1.081;exitDx=0;exitDy=0;exitPerimeter=0;" edge="1" parent="WIyWlLk6GJQsqaUBKTNV-1" source="K194ZJ6x8vjtOvq9FhH7-318" target="K194ZJ6x8vjtOvq9FhH7-330">
          <mxGeometry width="100" height="100" relative="1" as="geometry">
            <mxPoint x="762.4500000000003" y="848.3899999999999" as="sourcePoint" />
            <mxPoint x="660" y="1220" as="targetPoint" />
            <Array as="points">
              <mxPoint x="129.77999999999997" y="1042.3400000000001" />
              <mxPoint x="542.5" y="881" />
              <mxPoint x="-40.22000000000003" y="1132.3400000000001" />
            </Array>
          </mxGeometry>
        </mxCell>
        <mxCell id="K194ZJ6x8vjtOvq9FhH7-534" value="" style="edgeStyle=entityRelationEdgeStyle;fontSize=12;html=1;endArrow=ERzeroToMany;startArrow=ERmandOne;rounded=0;exitX=1;exitY=0.5;exitDx=0;exitDy=0;" edge="1" parent="WIyWlLk6GJQsqaUBKTNV-1" source="K194ZJ6x8vjtOvq9FhH7-320">
          <mxGeometry width="100" height="100" relative="1" as="geometry">
            <mxPoint x="834" y="826" as="sourcePoint" />
            <mxPoint x="1160" y="1188" as="targetPoint" />
            <Array as="points">
              <mxPoint x="127.27999999999997" y="1032.3400000000001" />
              <mxPoint x="540" y="871" />
              <mxPoint x="-42.72000000000003" y="1122.3400000000001" />
            </Array>
          </mxGeometry>
        </mxCell>
        <mxCell id="K194ZJ6x8vjtOvq9FhH7-535" value="" style="edgeStyle=entityRelationEdgeStyle;fontSize=12;html=1;endArrow=ERzeroToMany;startArrow=ERmandOne;rounded=0;exitX=1;exitY=0.5;exitDx=0;exitDy=0;entryX=0;entryY=0.5;entryDx=0;entryDy=0;" edge="1" parent="WIyWlLk6GJQsqaUBKTNV-1" source="K194ZJ6x8vjtOvq9FhH7-245" target="K194ZJ6x8vjtOvq9FhH7-380">
          <mxGeometry width="100" height="100" relative="1" as="geometry">
            <mxPoint x="1256" y="1065" as="sourcePoint" />
            <mxPoint x="1486" y="1543" as="targetPoint" />
            <Array as="points">
              <mxPoint x="453.28" y="1387.3400000000001" />
              <mxPoint x="866" y="1226" />
              <mxPoint x="283.28" y="1477.3400000000001" />
            </Array>
          </mxGeometry>
        </mxCell>
        <mxCell id="K194ZJ6x8vjtOvq9FhH7-536" value="evaluated by" style="edgeLabel;html=1;align=center;verticalAlign=middle;resizable=0;points=[];" vertex="1" connectable="0" parent="K194ZJ6x8vjtOvq9FhH7-535">
          <mxGeometry x="-0.0114" y="1" relative="1" as="geometry">
            <mxPoint as="offset" />
          </mxGeometry>
        </mxCell>
        <mxCell id="K194ZJ6x8vjtOvq9FhH7-537" value="" style="edgeStyle=entityRelationEdgeStyle;fontSize=12;html=1;endArrow=ERzeroToMany;startArrow=ERmandOne;rounded=0;exitX=1;exitY=1;exitDx=0;exitDy=0;entryX=1;entryY=0.5;entryDx=0;entryDy=0;" edge="1" parent="WIyWlLk6GJQsqaUBKTNV-1" source="K194ZJ6x8vjtOvq9FhH7-231" target="K194ZJ6x8vjtOvq9FhH7-244">
          <mxGeometry width="100" height="100" relative="1" as="geometry">
            <mxPoint x="1390" y="690" as="sourcePoint" />
            <mxPoint x="1390" y="835" as="targetPoint" />
            <Array as="points">
              <mxPoint x="547.28" y="1272.8400000000001" />
              <mxPoint x="960" y="1111.5" />
              <mxPoint x="377.28" y="1362.8400000000001" />
            </Array>
          </mxGeometry>
        </mxCell>
        <mxCell id="K194ZJ6x8vjtOvq9FhH7-538" value="host" style="edgeLabel;html=1;align=center;verticalAlign=middle;resizable=0;points=[];" vertex="1" connectable="0" parent="K194ZJ6x8vjtOvq9FhH7-537">
          <mxGeometry x="-0.0114" y="1" relative="1" as="geometry">
            <mxPoint as="offset" />
          </mxGeometry>
        </mxCell>
        <mxCell id="K194ZJ6x8vjtOvq9FhH7-539" value="" style="edgeStyle=entityRelationEdgeStyle;fontSize=12;html=1;endArrow=ERzeroToMany;startArrow=ERmandOne;rounded=0;exitX=1;exitY=0.25;exitDx=0;exitDy=0;entryX=0.75;entryY=0;entryDx=0;entryDy=0;" edge="1" parent="WIyWlLk6GJQsqaUBKTNV-1" source="K194ZJ6x8vjtOvq9FhH7-231" target="K194ZJ6x8vjtOvq9FhH7-377">
          <mxGeometry width="100" height="100" relative="1" as="geometry">
            <mxPoint x="1370" y="632.03" as="sourcePoint" />
            <mxPoint x="1536.2400000000002" y="1147.9699999999996" as="targetPoint" />
            <Array as="points">
              <mxPoint x="617.78" y="1229.8700000000001" />
              <mxPoint x="1030.5" y="1068.53" />
              <mxPoint x="447.78" y="1319.8700000000001" />
            </Array>
          </mxGeometry>
        </mxCell>
        <mxCell id="K194ZJ6x8vjtOvq9FhH7-542" value="involes" style="edgeLabel;html=1;align=center;verticalAlign=middle;resizable=0;points=[];" vertex="1" connectable="0" parent="K194ZJ6x8vjtOvq9FhH7-539">
          <mxGeometry x="0.005" y="1" relative="1" as="geometry">
            <mxPoint as="offset" />
          </mxGeometry>
        </mxCell>
        <mxCell id="K194ZJ6x8vjtOvq9FhH7-543" value="" style="edgeStyle=entityRelationEdgeStyle;fontSize=12;html=1;endArrow=ERzeroToMany;startArrow=ERmandOne;rounded=0;entryX=-0.009;entryY=0.868;entryDx=0;entryDy=0;entryPerimeter=0;exitX=1.008;exitY=-0.001;exitDx=0;exitDy=0;exitPerimeter=0;" edge="1" parent="WIyWlLk6GJQsqaUBKTNV-1" source="K194ZJ6x8vjtOvq9FhH7-186" target="K194ZJ6x8vjtOvq9FhH7-226">
          <mxGeometry width="100" height="100" relative="1" as="geometry">
            <mxPoint x="670" y="445" as="sourcePoint" />
            <mxPoint x="340" y="594" as="targetPoint" />
          </mxGeometry>
        </mxCell>
        <mxCell id="K194ZJ6x8vjtOvq9FhH7-544" value="" style="edgeStyle=entityRelationEdgeStyle;fontSize=12;html=1;endArrow=ERzeroToMany;startArrow=ERmandOne;rounded=0;entryX=0.997;entryY=0.052;entryDx=0;entryDy=0;entryPerimeter=0;exitX=0.789;exitY=1.114;exitDx=0;exitDy=0;exitPerimeter=0;" edge="1" parent="WIyWlLk6GJQsqaUBKTNV-1" target="K194ZJ6x8vjtOvq9FhH7-189">
          <mxGeometry width="100" height="100" relative="1" as="geometry">
            <mxPoint x="565.0000000000002" y="479.8300000000001" as="sourcePoint" />
            <mxPoint x="611.9199999999998" y="790.1700000000002" as="targetPoint" />
          </mxGeometry>
        </mxCell>
        <mxCell id="K194ZJ6x8vjtOvq9FhH7-545" value="" style="edgeStyle=entityRelationEdgeStyle;fontSize=12;html=1;endArrow=ERzeroToMany;startArrow=ERmandOne;rounded=0;exitX=1.014;exitY=0.177;exitDx=0;exitDy=0;entryX=-0.013;entryY=0.201;entryDx=0;entryDy=0;exitPerimeter=0;entryPerimeter=0;" edge="1" parent="WIyWlLk6GJQsqaUBKTNV-1" source="K194ZJ6x8vjtOvq9FhH7-225" target="K194ZJ6x8vjtOvq9FhH7-438">
          <mxGeometry width="100" height="100" relative="1" as="geometry">
            <mxPoint x="1424.5" y="500" as="sourcePoint" />
            <mxPoint x="2046.5" y="660" as="targetPoint" />
          </mxGeometry>
        </mxCell>
        <mxCell id="K194ZJ6x8vjtOvq9FhH7-546" value="include" style="edgeLabel;html=1;align=center;verticalAlign=middle;resizable=0;points=[];" vertex="1" connectable="0" parent="K194ZJ6x8vjtOvq9FhH7-545">
          <mxGeometry x="-0.0176" y="-2" relative="1" as="geometry">
            <mxPoint as="offset" />
          </mxGeometry>
        </mxCell>
        <mxCell id="K194ZJ6x8vjtOvq9FhH7-547" value="" style="edgeStyle=entityRelationEdgeStyle;fontSize=12;html=1;endArrow=ERzeroToMany;startArrow=ERmandOne;rounded=0;entryX=1.006;entryY=0.038;entryDx=0;entryDy=0;entryPerimeter=0;" edge="1" parent="WIyWlLk6GJQsqaUBKTNV-1" source="K194ZJ6x8vjtOvq9FhH7-423" target="K194ZJ6x8vjtOvq9FhH7-434">
          <mxGeometry width="100" height="100" relative="1" as="geometry">
            <mxPoint x="1230" y="125" as="sourcePoint" />
            <mxPoint x="1852" y="285" as="targetPoint" />
          </mxGeometry>
        </mxCell>
        <mxCell id="K194ZJ6x8vjtOvq9FhH7-548" value="supports" style="edgeLabel;html=1;align=center;verticalAlign=middle;resizable=0;points=[];" vertex="1" connectable="0" parent="K194ZJ6x8vjtOvq9FhH7-547">
          <mxGeometry x="-0.0176" y="-2" relative="1" as="geometry">
            <mxPoint as="offset" />
          </mxGeometry>
        </mxCell>
        <mxCell id="K194ZJ6x8vjtOvq9FhH7-549" value="" style="edgeStyle=entityRelationEdgeStyle;fontSize=12;html=1;endArrow=ERzeroToMany;startArrow=ERmandOne;rounded=0;exitX=1.002;exitY=0.136;exitDx=0;exitDy=0;exitPerimeter=0;entryX=0.319;entryY=-0.023;entryDx=0;entryDy=0;entryPerimeter=0;" edge="1" parent="WIyWlLk6GJQsqaUBKTNV-1" source="K194ZJ6x8vjtOvq9FhH7-423" target="K194ZJ6x8vjtOvq9FhH7-448">
          <mxGeometry width="100" height="100" relative="1" as="geometry">
            <mxPoint x="1785.5" y="-22.5" as="sourcePoint" />
            <mxPoint x="2095.5" y="152.5" as="targetPoint" />
          </mxGeometry>
        </mxCell>
        <mxCell id="K194ZJ6x8vjtOvq9FhH7-551" value="" style="edgeStyle=entityRelationEdgeStyle;fontSize=12;html=1;endArrow=ERzeroToMany;startArrow=ERmandOne;rounded=0;exitX=-0.004;exitY=0.169;exitDx=0;exitDy=0;exitPerimeter=0;entryX=1;entryY=0.5;entryDx=0;entryDy=0;" edge="1" parent="WIyWlLk6GJQsqaUBKTNV-1" source="K194ZJ6x8vjtOvq9FhH7-428" target="K194ZJ6x8vjtOvq9FhH7-449">
          <mxGeometry width="100" height="100" relative="1" as="geometry">
            <mxPoint x="1780" y="-21" as="sourcePoint" />
            <mxPoint x="1897" y="347" as="targetPoint" />
          </mxGeometry>
        </mxCell>
        <mxCell id="K194ZJ6x8vjtOvq9FhH7-552" value="" style="edgeStyle=entityRelationEdgeStyle;fontSize=12;html=1;endArrow=ERzeroToMany;startArrow=ERmandOne;rounded=0;exitX=-0.022;exitY=0.041;exitDx=0;exitDy=0;entryX=0.999;entryY=0.084;entryDx=0;entryDy=0;exitPerimeter=0;entryPerimeter=0;" edge="1" parent="WIyWlLk6GJQsqaUBKTNV-1" source="K194ZJ6x8vjtOvq9FhH7-393" target="K194ZJ6x8vjtOvq9FhH7-377">
          <mxGeometry width="100" height="100" relative="1" as="geometry">
            <mxPoint x="1580" y="880" as="sourcePoint" />
            <mxPoint x="1639" y="1269" as="targetPoint" />
            <Array as="points">
              <mxPoint x="682.28" y="1382.3400000000001" />
              <mxPoint x="1095" y="1221" />
              <mxPoint x="512.28" y="1472.3400000000001" />
            </Array>
          </mxGeometry>
        </mxCell>
        <mxCell id="K194ZJ6x8vjtOvq9FhH7-555" value="responds" style="edgeLabel;html=1;align=center;verticalAlign=middle;resizable=0;points=[];" vertex="1" connectable="0" parent="K194ZJ6x8vjtOvq9FhH7-552">
          <mxGeometry x="-0.0654" y="-1" relative="1" as="geometry">
            <mxPoint as="offset" />
          </mxGeometry>
        </mxCell>
        <mxCell id="K194ZJ6x8vjtOvq9FhH7-556" value="" style="edgeStyle=entityRelationEdgeStyle;fontSize=12;html=1;endArrow=ERzeroToMany;startArrow=ERmandOne;rounded=0;exitX=1.015;exitY=0.137;exitDx=0;exitDy=0;entryX=0;entryY=0.056;entryDx=0;entryDy=0;exitPerimeter=0;entryPerimeter=0;" edge="1" parent="WIyWlLk6GJQsqaUBKTNV-1" source="K194ZJ6x8vjtOvq9FhH7-393" target="K194ZJ6x8vjtOvq9FhH7-406">
          <mxGeometry width="100" height="100" relative="1" as="geometry">
            <mxPoint x="1949" y="810" as="sourcePoint" />
            <mxPoint x="1898" y="1193" as="targetPoint" />
            <Array as="points">
              <mxPoint x="1000.28" y="1391.3400000000001" />
              <mxPoint x="1413" y="1230" />
              <mxPoint x="830.28" y="1481.3400000000001" />
            </Array>
          </mxGeometry>
        </mxCell>
        <mxCell id="K194ZJ6x8vjtOvq9FhH7-557" value="post" style="edgeLabel;html=1;align=center;verticalAlign=middle;resizable=0;points=[];" vertex="1" connectable="0" parent="K194ZJ6x8vjtOvq9FhH7-556">
          <mxGeometry x="-0.0654" y="-1" relative="1" as="geometry">
            <mxPoint as="offset" />
          </mxGeometry>
        </mxCell>
        <mxCell id="K194ZJ6x8vjtOvq9FhH7-558" value="" style="edgeStyle=entityRelationEdgeStyle;fontSize=12;html=1;endArrow=ERzeroToMany;startArrow=ERmandOne;rounded=0;exitX=1.02;exitY=0.803;exitDx=0;exitDy=0;exitPerimeter=0;" edge="1" parent="WIyWlLk6GJQsqaUBKTNV-1" source="K194ZJ6x8vjtOvq9FhH7-395" target="K194ZJ6x8vjtOvq9FhH7-397">
          <mxGeometry width="100" height="100" relative="1" as="geometry">
            <mxPoint x="1807.96" y="900.0000000000001" as="sourcePoint" />
            <mxPoint x="1810" y="1145.85" as="targetPoint" />
            <Array as="points">
              <mxPoint x="1100.28" y="1378.19" />
              <mxPoint x="1513" y="1216.85" />
              <mxPoint x="930.28" y="1468.19" />
            </Array>
          </mxGeometry>
        </mxCell>
        <mxCell id="K194ZJ6x8vjtOvq9FhH7-560" value="" style="edgeStyle=entityRelationEdgeStyle;fontSize=12;html=1;endArrow=ERzeroToMany;startArrow=ERmandOne;rounded=0;exitX=0.448;exitY=1.057;exitDx=0;exitDy=0;entryX=0.5;entryY=0;entryDx=0;entryDy=0;exitPerimeter=0;" edge="1" parent="WIyWlLk6GJQsqaUBKTNV-1" source="K194ZJ6x8vjtOvq9FhH7-230" target="K194ZJ6x8vjtOvq9FhH7-231">
          <mxGeometry width="100" height="100" relative="1" as="geometry">
            <mxPoint x="1210" y="470" as="sourcePoint" />
            <mxPoint x="1586" y="925" as="targetPoint" />
          </mxGeometry>
        </mxCell>
        <mxCell id="K194ZJ6x8vjtOvq9FhH7-561" value="belongs" style="edgeLabel;html=1;align=center;verticalAlign=middle;resizable=0;points=[];" vertex="1" connectable="0" parent="K194ZJ6x8vjtOvq9FhH7-560">
          <mxGeometry x="-0.155" y="1" relative="1" as="geometry">
            <mxPoint as="offset" />
          </mxGeometry>
        </mxCell>
        <mxCell id="K194ZJ6x8vjtOvq9FhH7-562" value="" style="edgeStyle=entityRelationEdgeStyle;fontSize=12;html=1;endArrow=ERzeroToMany;startArrow=ERmandOne;rounded=0;exitX=1;exitY=0.75;exitDx=0;exitDy=0;" edge="1" parent="WIyWlLk6GJQsqaUBKTNV-1" source="K194ZJ6x8vjtOvq9FhH7-255">
          <mxGeometry width="100" height="100" relative="1" as="geometry">
            <mxPoint x="955" y="75" as="sourcePoint" />
            <mxPoint x="1140" y="430" as="targetPoint" />
          </mxGeometry>
        </mxCell>
        <mxCell id="K194ZJ6x8vjtOvq9FhH7-563" value="" style="edgeStyle=entityRelationEdgeStyle;fontSize=12;html=1;endArrow=ERzeroToMany;startArrow=ERmandOne;rounded=0;exitX=1.003;exitY=0.148;exitDx=0;exitDy=0;exitPerimeter=0;entryX=1;entryY=0.5;entryDx=0;entryDy=0;" edge="1" parent="WIyWlLk6GJQsqaUBKTNV-1" source="K194ZJ6x8vjtOvq9FhH7-264" target="K194ZJ6x8vjtOvq9FhH7-284">
          <mxGeometry width="100" height="100" relative="1" as="geometry">
            <mxPoint x="3090" y="177.5" as="sourcePoint" />
            <mxPoint x="3025" y="592.5" as="targetPoint" />
            <Array as="points">
              <mxPoint x="3030" y="-140" />
            </Array>
          </mxGeometry>
        </mxCell>
        <mxCell id="K194ZJ6x8vjtOvq9FhH7-564" value="" style="edgeStyle=entityRelationEdgeStyle;fontSize=12;html=1;endArrow=ERzeroToMany;startArrow=ERmandOne;rounded=0;entryX=0.687;entryY=1.025;entryDx=0;entryDy=0;entryPerimeter=0;exitX=-0.009;exitY=0.183;exitDx=0;exitDy=0;exitPerimeter=0;" edge="1" parent="WIyWlLk6GJQsqaUBKTNV-1" source="K194ZJ6x8vjtOvq9FhH7-304" target="K194ZJ6x8vjtOvq9FhH7-286">
          <mxGeometry width="100" height="100" relative="1" as="geometry">
            <mxPoint x="3060" y="230" as="sourcePoint" />
            <mxPoint x="3005" y="125" as="targetPoint" />
            <Array as="points">
              <mxPoint x="3040" y="-130" />
            </Array>
          </mxGeometry>
        </mxCell>
        <mxCell id="K194ZJ6x8vjtOvq9FhH7-565" value="" style="edgeStyle=entityRelationEdgeStyle;fontSize=12;html=1;endArrow=ERzeroToMany;startArrow=ERmandOne;rounded=0;entryX=0.373;entryY=1.089;entryDx=0;entryDy=0;entryPerimeter=0;exitX=1.022;exitY=-0.125;exitDx=0;exitDy=0;exitPerimeter=0;" edge="1" parent="WIyWlLk6GJQsqaUBKTNV-1" source="K194ZJ6x8vjtOvq9FhH7-295" target="K194ZJ6x8vjtOvq9FhH7-286">
          <mxGeometry width="100" height="100" relative="1" as="geometry">
            <mxPoint x="2958" y="357" as="sourcePoint" />
            <mxPoint x="2899" y="201" as="targetPoint" />
            <Array as="points">
              <mxPoint x="3050" y="-120" />
            </Array>
          </mxGeometry>
        </mxCell>
      </root>
    </mxGraphModel>
  </diagram>
</mxfile>
